<?xml version="1.0" encoding="utf-8"?>
<!-- Generator: Adobe Illustrator 16.0.0, SVG Export Plug-In . SVG Version: 6.00 Build 0)  -->
<!DOCTYPE svg PUBLIC "-//W3C//DTD SVG 1.1//EN" "http://www.w3.org/Graphics/SVG/1.1/DTD/svg11.dtd">
<svg version="1.1" id="Layer_1" xmlns="http://www.w3.org/2000/svg" xmlns:xlink="http://www.w3.org/1999/xlink" x="0px" y="0px"
	 width="300px" height="400px" viewBox="0 0 300 400" enable-background="new 0 0 300 400" xml:space="preserve">
<path fill="none" stroke="#CADBE0" d="M261.098,176.959v17.362c0,6.509-5.37,11.784-11.999,11.784h-46.04l-0.001,108.811
	c0,0.098-0.001,0.205-0.009,0.303v63.529c0,6.512-5.371,11.785-12,11.785h-15.371c-6.619,0-12-5.273-11.998-11.785v-52.047
	l-26.251-0.002l-0.001,52.049c0,6.514-5.368,11.785-11.999,11.785h-15.37c-6.63,0-12-5.273-12-11.785l0.001-172.643h-48.05
	c-6.62,0-12.001-5.273-12-11.784l0-17.362c0-6.503,5.381-11.785,12-11.785h48.051V159.9c-0.001-6.501,5.37-11.784,11.999-11.784
	h23.11c-30.73-7.61-53.481-34.941-53.48-67.486c0-38.437,31.73-69.589,70.861-69.589c39.139,0.002,70.87,31.152,70.87,69.589
	c-0.001,32.545-22.751,59.875-53.479,67.486h23.119c6.631,0,12,5.282,12.001,11.784l-0.001,5.274h46.039
	C255.729,165.173,261.099,170.457,261.098,176.959z"/>
<path fill="none" stroke="#EACED7" d="M166.389,201.311c5.659-22.334,24.518-17.431,24.317,0
	c-0.142,12.348-15.317,19.422-24.317,25.922l0,0c-9-6.5-24.176-13.574-24.317-25.922
	C141.871,183.879,160.729,178.976,166.389,201.311L166.389,201.311z"/>
</svg>
