<?xml version="1.0" encoding="utf-8"?>
<!-- Generator: Adobe Illustrator 16.0.0, SVG Export Plug-In . SVG Version: 6.00 Build 0)  -->
<!DOCTYPE svg PUBLIC "-//W3C//DTD SVG 1.1//EN" "http://www.w3.org/Graphics/SVG/1.1/DTD/svg11.dtd">
<svg version="1.1" id="Layer_1" xmlns="http://www.w3.org/2000/svg" xmlns:xlink="http://www.w3.org/1999/xlink" x="0px" y="0px"
	 width="960px" height="560px" viewBox="0 0 960 560" enable-background="new 0 0 960 560" xml:space="preserve">
<g id="hole">
	<g>
		<linearGradient id="SVGID_1_" gradientUnits="userSpaceOnUse" x1="392.6665" y1="146.4023" x2="296.7649" y2="409.8898">
			<stop  offset="0" style="stop-color:#494D59"/>
			<stop  offset="0.256" style="stop-color:#434955"/>
			<stop  offset="0.6069" style="stop-color:#313F4B"/>
			<stop  offset="0.7927" style="stop-color:#1D3340"/>
			<stop  offset="1" style="stop-color:#012330"/>
		</linearGradient>
		<path fill="url(#SVGID_1_)" d="M452.627,168.628l24.607,14.209c9.229,5.329,9.229,13.959,0,19.289l-64.094,37.003l154.241,89.053
			c0.137,0.077,0.291,0.168,0.418,0.254l90.051,51.99c9.229,5.331,9.229,13.963,0,19.291l-21.396,12.354
			c-9.215,5.315-24.182,5.33-33.406-0.001l-73.777-42.598l-36.545,21.1l73.775,42.597c9.23,5.33,9.23,13.962,0.006,19.292
			l-21.396,12.352c-9.229,5.33-24.182,5.33-33.412,0l-244.72-141.291l-66.892,38.612c-9.215,5.322-24.181,5.331-33.408,0.007
			l-24.612-14.209c-9.218-5.32-9.214-13.975,0-19.291l66.892-38.617l-7.477-4.316c-9.216-5.321-9.229-13.961,0-19.29l32.17-18.574
			c-53.567,18.47-123.979,14.389-170.11-12.247c-54.486-31.458-54.47-82.454,0.003-113.904
			c54.487-31.457,142.814-31.465,197.3-0.009c46.131,26.635,53.201,67.287,21.212,98.214l32.186-18.583
			c9.229-5.328,24.194-5.32,33.409,0l7.479,4.316l64.091-37.003C428.448,163.299,443.41,163.308,452.627,168.628z"/>
	</g>
	<line fill="none" stroke="#231F20" x1="282.784" y1="333.544" x2="282.784" y2="219.898"/>
	<line fill="none" stroke="#231F20" x1="412.988" y1="408.358" x2="412.988" y2="238.919"/>
	<line fill="none" stroke="#231F20" x1="355.118" y1="374.334" x2="355.118" y2="204.895"/>
	<line fill="none" stroke="#231F20" x1="492.287" y1="453.604" x2="492.287" y2="390.559"/>
	<line fill="none" stroke="#231F20" x1="232.953" y1="343.591" x2="232.953" y2="248.824"/>
	<line fill="none" stroke="#231F20" x1="208.84" y1="357.084" x2="208.84" y2="289.613"/>
	<g>
		<line fill="none" stroke="#231F20" x1="208.381" y1="322.57" x2="233.65" y2="307.98"/>
	</g>
	<g>
		<line fill="none" stroke="#231F20" x1="181.384" y1="366.081" x2="208.957" y2="350.162"/>
	</g>
	<g>
		<line fill="none" stroke="#231F20" x1="492.727" y1="450.712" x2="523.561" y2="468.515"/>
	</g>
	<g>
		<path fill="none" stroke="#231F20" d="M413.145,299.268l154.24,89.053c0.139,0.08,0.291,0.173,0.418,0.259l47.102,27.19"/>
	</g>
	<g>
		<path fill="none" stroke="#231F20" d="M282.054,280.037l32.186-18.583c9.229-5.328,24.194-5.32,33.409,0l7.477,4.317
			l64.096-37.003c5.271-3.046,12.419-4.348,19.296-3.911"/>
	</g>
	<g>
		<path fill="none" stroke="#231F20" d="M32.729,208.717c6.811-9.786,17.082-18.958,30.814-26.886
			c54.487-31.457,142.814-31.466,197.3-0.009c14.377,8.3,24.022,16.581,30.811,26.885"/>
	</g>
	<path fill="none" stroke="#231F20" d="M437.918,224.827"/>
	<path fill="none" stroke="#231F20" d="M437.918,224.827"/>
	<path fill="none" stroke="#231F20" d="M437.918,224.827"/>
	<path fill="none" stroke="#231F20" d="M291.653,208.707"/>
</g>
<path id="outline1" fill="none" stroke="#231F20" d="M452.627,168.628l24.607,14.209c9.229,5.329,9.229,13.959,0,19.289
	l-64.094,37.003l154.241,89.053c0.137,0.077,0.291,0.168,0.418,0.254l90.051,51.99c9.229,5.331,9.229,13.963,0,19.291
	l-21.396,12.354c-9.215,5.315-24.182,5.33-33.406-0.001l-73.777-42.598l-36.545,21.1l73.775,42.597
	c9.23,5.33,9.23,13.962,0.006,19.292l-21.396,12.352c-9.229,5.33-24.182,5.33-33.412,0l-244.72-141.291l-66.892,38.612
	c-9.215,5.322-24.181,5.331-33.408,0.007l-24.612-14.209c-9.218-5.32-9.214-13.975,0-19.291l66.892-38.617l-7.477-4.316
	c-9.216-5.321-9.229-13.961,0-19.29l32.17-18.574c-53.567,18.47-123.979,14.389-170.11-12.247
	c-54.486-31.458-54.47-82.454,0.003-113.904c54.487-31.457,142.814-31.465,197.3-0.009c46.131,26.635,53.201,67.287,21.212,98.214
	l32.186-18.583c9.229-5.328,24.194-5.32,33.409,0l7.479,4.316l64.091-37.003C428.448,163.299,443.41,163.308,452.627,168.628z"/>
<path id="outline2" fill="none" stroke="#231F20" d="M452.627,168.628l24.607,14.209c9.229,5.329,9.229,13.959,0,19.289
	l-64.094,37.003l154.241,89.053c0.137,0.077,0.291,0.168,0.418,0.254l90.051,51.99c9.229,5.331,9.229,13.963,0,19.291
	l-21.396,12.354c-9.215,5.315-24.182,5.33-33.406-0.001l-73.777-42.598l-36.545,21.1l73.775,42.597
	c9.23,5.33,9.23,13.962,0.006,19.292l-21.396,12.352c-9.229,5.33-24.182,5.33-33.412,0l-244.72-141.291l-66.892,38.612
	c-9.215,5.322-24.181,5.331-33.408,0.007l-24.612-14.209c-9.218-5.32-9.214-13.975,0-19.291l66.892-38.617l-7.477-4.316
	c-9.216-5.321-9.229-13.961,0-19.29l32.17-18.574c-53.567,18.47-123.979,14.389-170.11-12.247
	c-54.486-31.458-54.47-82.454,0.003-113.904c54.487-31.457,142.814-31.465,197.3-0.009c46.131,26.635,53.201,67.287,21.212,98.214
	l32.186-18.583c9.229-5.328,24.194-5.32,33.409,0l7.479,4.316l64.091-37.003C428.448,163.299,443.41,163.308,452.627,168.628z"/>
<g id="inners">
	<g id="heart">
		<path fill="#FACBCB" stroke="#FACBCB" d="M363.837,150.871v0.387c-0.193,19.964-21.331,43.53-33.854,61.212
			c-0.016,0-0.016,0-0.033,0l-0.145-0.049c-6.252-1.575-14.562-2.186-21.378-4.822c-6.864-2.652-12.201-7.378-12.298-17.248
			c-0.18-18.518,11.361-34.913,21.427-34.593c3.358-1.382,6.767-1.012,9.663,1.721c1.604,0.61,3.712,2.186,5.014,4.179
			c8.584-28.581,26.973-35.011,30.862-18.084c0.033,0.113,0.062,0.242,0.083,0.371c0.08,0.305,0.144,0.626,0.188,0.948
			c0.033,0.096,0.054,0.209,0.054,0.305c0.048,0.258,0.076,0.515,0.107,0.771c0.032,0.048,0.032,0.097,0.021,0.146
			c0.079,0.562,0.145,1.141,0.177,1.752c0.031,0.306,0.047,0.627,0.062,0.948C363.837,149.474,363.837,150.165,363.837,150.871z"/>
		<g>
			<path fill="none" stroke="#DCA1B2" d="M316.833,210.115"/>
			<path fill="none" stroke="#DCA1B2" d="M331.972,161.833c9.701-32.248,31.868-36.305,31.606-10.399
				c-0.194,19.963-21.322,43.532-33.853,61.213l0,0c-12.53-3.214-33.656-2.389-33.854-22.124
				c-0.156-16.072,8.512-30.539,17.39-33.885"/>
			<path fill="none" stroke="#DCA1B2" d="M335.53,202.545h-0.977c-10.023-2.572-26.925-1.911-27.083-17.699
				c-0.195-19.371,15.646-35.828,23.933-23.335"/>
			<path fill="none" stroke="#DCA1B2" d="M335.3,165.769c7.061-29.305,26.549-33.914,26.335-12.193
				c-0.146,14.491-14.073,31.359-24.146,44.928"/>
			<path fill="none" stroke="#DCA1B2" d="M338.34,196.588l-1.399-0.305c-7.8-2.001-20.949-1.487-21.073-13.77
				c-0.173-17.339,16.167-31.679,21.07-12.165l0,0c4.905-25.176,21.245-29.705,21.072-12.165
				c-0.108,10.842-9.599,24.332-17.328,34.668"/>
			<path fill="none" stroke="#DCA1B2" d="M332.631,207.013L332.631,207.013c-11.456-2.938-30.774-2.185-30.955-20.229
				c-0.206-20.623,15.485-38.357,25.298-29.149"/>
			<path fill="none" stroke="#DCA1B2" d="M333.854,163.503c8.357-32.167,29.971-36.913,29.729-12.459
				c-0.17,17.206-17.348,37.343-28.908,53.139"/>
			<path fill="none" stroke="#DCA1B2" d="M347.758,136.797c8.417-6.136,16.479-1.689,16.33,13.74
				c-0.189,19.319-20.643,42.13-32.765,59.243l0,0c-12.126-3.111-32.571-2.312-32.766-21.411
				c-0.144-14.137,6.778-26.993,14.49-31.648c3.308-1.997,6.759-2.486,9.861-0.923"/>
			<path fill="none" stroke="#DCA1B2" stroke-miterlimit="10" d="M337.06,170.103c2.884,3.465,4.927,8.03,4.927,12.473
				c0,2.815-0.731,6.053-1.847,9.339c-3.43,10.141-10.438,20.732-10.438,20.732"/>
		</g>
	</g>
	<g id="brain">
		<path fill="#FACBCB" stroke="#DCA1B2" d="M160.877,115.064c22.969,13.26,27.956,31.872,11.143,41.578
			c-3.805,2.2-8.401,3.751-13.503,4.683c-1.614,2.945-4.307,5.603-8.119,7.802c-16.809,9.706-49.052,6.828-72.02-6.431
			c-22.959-13.257-27.942-31.874-11.133-41.579c3.808-2.199,8.411-3.755,13.512-4.686c1.614-2.946,4.302-5.6,8.109-7.799
			C105.678,98.927,137.918,101.808,160.877,115.064z"/>
		<path fill="#FACBCB" stroke="#DCA1B2" d="M165.241,103.591c25.835,14.917,31.446,35.856,12.533,46.775
			c-4.282,2.474-9.456,4.221-15.191,5.269c-1.818,3.313-4.848,6.302-9.13,8.775c-18.916,10.919-55.19,7.683-81.027-7.233
			c-25.829-14.913-31.434-35.857-12.52-46.776c4.282-2.474,9.458-4.223,15.198-5.271c1.818-3.313,4.841-6.299,9.124-8.773
			C103.14,85.438,139.409,88.678,165.241,103.591z"/>
		<path fill="#FACBCB" stroke="#DCA1B2" d="M170.494,89.418c28.708,16.575,34.943,39.84,13.93,51.973
			c-4.763,2.75-10.508,4.688-16.885,5.854c-2.016,3.682-5.381,7.002-10.144,9.751c-21.013,12.133-61.32,8.538-90.029-8.038
			c-28.699-16.571-34.928-39.841-13.915-51.974c4.763-2.749,10.515-4.69,16.891-5.856c2.019-3.682,5.378-6.999,10.138-9.747
			C101.496,69.248,141.795,72.847,170.494,89.418z"/>
		<path fill="#FACBCB" stroke="#DCA1B2" d="M165.241,78.676c25.835,14.916,31.446,35.857,12.537,46.775
			c-4.286,2.474-9.457,4.22-15.195,5.268c-1.818,3.313-4.848,6.302-9.13,8.776c-18.913,10.919-55.187,7.683-81.024-7.233
			c-25.832-14.914-31.437-35.857-12.523-46.776c4.285-2.475,9.462-4.223,15.198-5.271c1.818-3.313,4.841-6.299,9.126-8.773
			C103.14,60.523,139.409,63.762,165.241,78.676z"/>
		<path fill="#FACBCB" stroke="#DCA1B2" d="M160.877,77.289c22.969,13.259,27.956,31.872,11.143,41.579
			c-3.805,2.199-8.401,3.75-13.503,4.683c-1.614,2.945-4.307,5.602-8.119,7.801c-16.809,9.707-49.052,6.829-72.02-6.43
			c-22.959-13.256-27.942-31.873-11.133-41.579c3.808-2.198,8.411-3.754,13.512-4.686c1.614-2.946,4.302-5.6,8.109-7.798
			C105.678,61.152,137.918,64.033,160.877,77.289z"/>
		<path fill="#FACBCB" stroke="#DCA1B2" d="M154.928,77.065c20.097,11.602,24.46,27.889,9.752,36.381
			c-3.335,1.924-7.356,3.282-11.817,4.097c-1.413,2.578-3.771,4.901-7.102,6.826c-14.712,8.493-42.924,5.976-63.019-5.626
			c-20.094-11.599-24.452-27.889-9.743-36.381c3.335-1.925,7.359-3.284,11.824-4.101c1.412-2.577,3.764-4.899,7.095-6.822
			C106.629,62.947,134.838,65.466,154.928,77.065z"/>
		<path fill="none" stroke="#DCA1B2" d="M84.823,78.261c20.245,0,56.814,19.643,68.039,39.282c1.02,1.791,3.563-0.797,5.654,6.007
			c0.603,1.969,6.43,1.129,4.066,7.169c-1.103,2.817,7.588,1.194,4.957,16.525"/>
	</g>
</g>
<path id="floor" fill="#FFFFFF" d="M-41.999,560.25h599.021l9.404-107.188l-21.396,12.354c-9.229,5.328-24.184,5.328-33.412,0
	L266.898,324.124l-66.737,38.562c-9.219,5.234-24.273,5.328-33.5,0l-24.656-14.25c-10.078-5.625-9.672-14.938-0.172-20.312
	l66.09-38.048l-6.523-3.768c-9.216-5.319-10.161-13.938-0.939-19.975l28.591-16.495c-60.03,18.91-126.53,9.035-165.78-13.715
	c-26.416-15.583-40.284-35.149-41.041-55.167L-42,180.48"/>
<g id="Name" enable-background="new    ">
	<linearGradient id="SVGID_2_" gradientUnits="userSpaceOnUse" x1="557.6699" y1="42.1914" x2="544.6035" y2="78.0911">
		<stop  offset="0" style="stop-color:#494D59"/>
		<stop  offset="0.256" style="stop-color:#434955"/>
		<stop  offset="0.6069" style="stop-color:#313F4B"/>
		<stop  offset="0.7927" style="stop-color:#1D3340"/>
		<stop  offset="1" style="stop-color:#012330"/>
	</linearGradient>
	<path fill="url(#SVGID_2_)" d="M544.08,55.129c0,0.916-0.461,1.63-1.382,2.141c-0.372,0.229-0.982,0.344-1.832,0.344h-0.45
		c-0.796,0-1.465-0.251-2.005-0.753c-0.538-0.502-0.81-1.124-0.81-1.864c0-0.916,0.326-1.577,0.979-1.983l0.582-0.397
		c0.07-0.07,0.105-0.124,0.105-0.159c-0.018-0.088-0.053-0.159-0.105-0.212l-0.688-0.423c-0.582-0.37-0.872-1.022-0.872-1.956
		c0-1.728,1.036-2.592,3.107-2.592c2.247,0,3.371,0.882,3.371,2.645c0,0.916-0.351,1.586-1.048,2.009l-0.563,0.317
		c-0.072,0.07-0.108,0.141-0.108,0.212c0.018,0.053,0.035,0.105,0.054,0.159l0.779,0.502
		C543.785,53.489,544.08,54.159,544.08,55.129z M544.08,70.439c0,1.005-0.447,1.745-1.34,2.221
		c-0.393,0.212-1.008,0.317-1.847,0.317c-0.964,0-1.678-0.141-2.142-0.423c-0.768-0.476-1.151-1.128-1.151-1.957
		c0-1.798,1.025-2.698,3.078-2.698c0.964,0,1.669,0.123,2.115,0.371C543.651,68.747,544.08,69.47,544.08,70.439z M559.47,60.1
		c0,0.758-0.256,1.388-0.767,1.891c-0.512,0.503-1.155,0.754-1.931,0.754h-10.684c-2.238,0-3.358-0.864-3.358-2.592
		c0-0.952,0.44-1.692,1.322-2.221c0.353-0.212,0.926-0.317,1.719-0.317h11c0.775,0,1.419,0.238,1.931,0.714
		C559.213,58.804,559.47,59.395,559.47,60.1z M559.47,75.582c0,1.736-0.952,2.604-2.855,2.604h-11.212
		c-0.758,0-1.393-0.248-1.905-0.743c-0.511-0.496-0.767-1.099-0.767-1.809c0-0.991,0.414-1.728,1.243-2.206
		c0.405-0.248,1.138-0.373,2.194-0.373h10.498c0.812,0,1.48,0.235,2.01,0.704C559.205,74.231,559.47,74.838,559.47,75.582z
		 M559.47,44.604c0,1.781-1.226,2.67-3.676,2.67c-0.388,0-0.68-0.018-0.872-0.053h-9.201c-1.94,0-2.909-0.855-2.909-2.564
		c0-1.022,0.433-1.763,1.295-2.221c0.477-0.248,1.234-0.371,2.275-0.371h9.308c1.304,0,2.168,0.123,2.592,0.371
		C559.073,42.912,559.47,43.635,559.47,44.604z M564.705,49.813c0,1.022-0.45,1.78-1.353,2.274
		c-0.406,0.212-1.046,0.317-1.912,0.317c-2.142,0-3.212-0.864-3.212-2.592c0-1.692,1.035-2.539,3.106-2.539
		C563.582,47.275,564.705,48.121,564.705,49.813z M564.705,70.439c0,0.758-0.295,1.429-0.882,2.009
		c-0.394,0.388-1.268,0.582-2.624,0.582c-1.98,0-2.971-0.846-2.971-2.538c0-0.987,0.379-1.692,1.137-2.116
		c0.37-0.194,0.555-0.335,0.555-0.423c0-0.141-0.07-0.229-0.212-0.264c-0.987-0.546-1.479-1.304-1.479-2.274
		c0-1.745,1.132-2.617,3.399-2.617c2.052,0,3.078,0.855,3.078,2.564c0,0.934-0.322,1.595-0.968,1.983l-0.61,0.397
		c-0.093,0.07-0.139,0.123-0.139,0.159c0,0.159,0.156,0.3,0.471,0.423C564.289,68.711,564.705,69.416,564.705,70.439z"/>
	<linearGradient id="SVGID_3_" gradientUnits="userSpaceOnUse" x1="591.5381" y1="44.6606" x2="578.3673" y2="80.8471">
		<stop  offset="0" style="stop-color:#494D59"/>
		<stop  offset="0.256" style="stop-color:#434955"/>
		<stop  offset="0.6069" style="stop-color:#313F4B"/>
		<stop  offset="0.7927" style="stop-color:#1D3340"/>
		<stop  offset="1" style="stop-color:#012330"/>
	</linearGradient>
	<path fill="url(#SVGID_3_)" d="M596.675,75.702c0,1.762-1.013,2.644-3.038,2.644c-1.031,0-1.743-0.105-2.134-0.316
		c-0.87-0.494-1.306-1.251-1.306-2.275c0-0.846,0.408-1.569,1.229-2.168l0.218-0.159c0.146-0.053,0.219-0.141,0.219-0.264
		c0-0.106-0.146-0.238-0.438-0.397c-0.82-0.423-1.229-1.164-1.229-2.222c0-1.059,0.427-1.78,1.283-2.168
		c0.255-0.159,0.383-0.282,0.383-0.37c-0.018-0.088-0.054-0.159-0.106-0.212l-0.714-0.501c-0.563-0.389-0.846-0.996-0.846-1.825
		c0-0.792,0.215-1.392,0.646-1.798c0.433-0.406,0.647-0.634,0.647-0.687c0-0.159-0.069-0.238-0.211-0.238h-16.21
		c-0.317,0-0.476,0.079-0.476,0.238l0.104,0.212l0.414,0.37c0.501,0.441,0.752,1.058,0.752,1.852c0,0.987-0.374,1.692-1.12,2.115
		c-0.399,0.212-0.599,0.37-0.599,0.476l0.078,0.054l0.155,0.158l0.522,0.397c0.641,0.441,0.964,1.049,0.964,1.824
		c0,1.041-0.322,1.763-0.964,2.168c-0.45,0.3-0.677,0.502-0.677,0.608c0,0.088,0.108,0.176,0.323,0.264
		c0.877,0.37,1.316,1.111,1.316,2.222c0,1.093-0.452,1.868-1.354,2.327c-0.354,0.212-1.01,0.316-1.964,0.316
		c-0.868,0-1.488-0.105-1.858-0.316c-0.868-0.511-1.301-1.27-1.301-2.275c0-1.11,0.432-1.852,1.295-2.222
		c0.229-0.141,0.345-0.247,0.345-0.317c0-0.123-0.221-0.326-0.661-0.608c-0.652-0.405-0.979-1.093-0.979-2.062
		c0-0.969,0.361-1.674,1.084-2.115c0.405-0.229,0.608-0.388,0.608-0.476c0-0.053-0.282-0.273-0.847-0.661
		c-0.563-0.389-0.846-1.031-0.846-1.93c0-1.146,0.432-1.905,1.295-2.275c0.229-0.105,0.345-0.22,0.345-0.344
		c0-0.088-0.035-0.141-0.106-0.159l-0.662-0.423c-0.581-0.389-0.871-1.059-0.871-2.01c0-0.617,0.229-1.19,0.688-1.718
		c0.457-0.528,0.969-0.802,1.532-0.82c0.829-0.018,1.244-0.106,1.244-0.264c-0.106-0.194-0.336-0.449-0.688-0.768
		c-0.405-0.335-0.608-0.899-0.608-1.692c0-1.005,0.433-1.745,1.296-2.221c0.404-0.212,1.093-0.317,2.062-0.317
		c2.098,0,3.146,0.846,3.146,2.539c0,0.724-0.238,1.323-0.714,1.799l-0.476,0.476c-0.069,0.07-0.106,0.132-0.106,0.185
		c0,0.141,0.212,0.212,0.634,0.212h11.053c0.547,0,0.821-0.097,0.821-0.291c0-0.088-0.105-0.212-0.317-0.37
		c-0.617-0.441-0.926-1.093-0.926-1.956c0-1.728,1.031-2.592,3.094-2.592c2.275,0,3.411,0.828,3.411,2.485
		c0,0.935-0.309,1.623-0.925,2.062c-0.229,0.159-0.344,0.308-0.344,0.449s0.335,0.229,1.005,0.264
		c0.669,0.035,1.239,0.305,1.706,0.807c0.466,0.502,0.7,1.08,0.7,1.731c0,0.934-0.3,1.604-0.899,2.01l-0.661,0.423
		c-0.069,0.07-0.105,0.123-0.105,0.159c0,0.106,0.069,0.203,0.211,0.291l0.556,0.37c0.6,0.423,0.899,1.075,0.899,1.956
		c0,0.881-0.282,1.542-0.847,1.983c-0.545,0.352-0.819,0.555-0.819,0.608c0,0.07,0.255,0.291,0.767,0.661
		c0.6,0.352,0.899,1.013,0.899,1.984c0,0.899-0.277,1.547-0.832,1.943c-0.556,0.397-0.833,0.622-0.833,0.675
		c0,0.053,0.193,0.194,0.581,0.423C596.313,74.044,596.675,74.731,596.675,75.702z M582.184,49.656c0,1.798-1.084,2.697-3.252,2.697
		s-3.253-0.864-3.253-2.591c0-1.781,1.013-2.67,3.041-2.67c1.021,0,1.779,0.15,2.274,0.449
		C581.787,47.998,582.184,48.703,582.184,49.656z M586.256,44.445c0,1.762-1.026,2.645-3.081,2.645
		c-1.036,0-1.764-0.141-2.186-0.423c-0.809-0.546-1.212-1.251-1.212-2.115c0-1.763,1.027-2.645,3.082-2.645
		C585.123,41.907,586.256,42.753,586.256,44.445z M590.407,49.708c0,1.093-0.448,1.868-1.349,2.327
		c-0.44,0.212-1.109,0.316-2.008,0.316c-0.777,0-1.357-0.105-1.745-0.316c-0.935-0.53-1.402-1.27-1.402-2.222
		c0-1.128,0.449-1.905,1.348-2.327c0.353-0.229,1.041-0.344,2.062-0.344C589.376,47.143,590.407,47.998,590.407,49.708z"/>
	<linearGradient id="SVGID_4_" gradientUnits="userSpaceOnUse" x1="622.9893" y1="42.1494" x2="609.2659" y2="79.8541">
		<stop  offset="0" style="stop-color:#494D59"/>
		<stop  offset="0.256" style="stop-color:#434955"/>
		<stop  offset="0.6069" style="stop-color:#313F4B"/>
		<stop  offset="0.7927" style="stop-color:#1D3340"/>
		<stop  offset="1" style="stop-color:#012330"/>
	</linearGradient>
	<path fill="url(#SVGID_4_)" d="M624.862,44.591c0,0.736-0.256,1.355-0.767,1.856c-0.512,0.501-1.147,0.749-1.905,0.749h-13.247
		c-0.546,0-0.82,0.07-0.82,0.212s0.086,0.282,0.259,0.423c0.637,0.601,0.958,1.237,0.958,1.906c0,1.023-0.356,1.746-1.067,2.17
		c-0.398,0.229-0.598,0.388-0.598,0.477c0.034,0.141,0.079,0.212,0.133,0.212l0.645,0.502c0.592,0.424,0.888,1.051,0.888,1.879
		c0,0.9-0.296,1.553-0.887,1.958l-0.777,0.556c0,0.018-0.007,0.03-0.016,0.04c-0.009,0.009-0.021,0.03-0.039,0.066
		c0,0.088,0.243,0.282,0.726,0.583c0.662,0.423,0.994,1.095,0.994,2.011c0,1.006-0.35,1.711-1.048,2.118
		c-0.412,0.229-0.618,0.388-0.618,0.476c0,0.123,0.168,0.273,0.51,0.449c0.771,0.39,1.155,1.112,1.155,2.171
		c0,0.935-0.495,1.72-1.479,2.356c-0.125,0.07-0.187,0.15-0.187,0.238s0.259,0.308,0.777,0.661c0.592,0.39,0.887,1.032,0.887,1.933
		c0,1.023-0.438,1.764-1.315,2.224c-0.286,0.141-0.438,0.256-0.456,0.344c0,0.123,0.063,0.212,0.188,0.264l0.539,0.371
		c0.697,0.476,1.047,1.129,1.047,1.958c0,1.694-1.001,2.541-3.001,2.541c-0.974,0-1.619-0.07-1.938-0.212
		c-1.027-0.441-1.54-1.234-1.54-2.379s0.432-1.887,1.295-2.222c0.229-0.088,0.344-0.194,0.344-0.317
		c0-0.123-0.237-0.326-0.714-0.608c-0.616-0.371-0.925-1.04-0.925-2.01c0-0.916,0.309-1.586,0.925-2.009
		c0.477-0.247,0.714-0.423,0.714-0.529c0-0.106-0.018-0.176-0.053-0.212l-0.767-0.502c-0.547-0.335-0.821-0.961-0.821-1.877
		c0-0.969,0.344-1.674,1.031-2.115l0.556-0.264c0.069-0.088,0.105-0.167,0.105-0.238c0-0.088-0.166-0.212-0.502-0.37
		c-0.792-0.494-1.19-1.234-1.19-2.221c0-0.97,0.38-1.675,1.138-2.116c0.37-0.247,0.555-0.405,0.555-0.477
		c0-0.071-0.097-0.159-0.29-0.264c-0.935-0.441-1.402-1.225-1.402-2.354c0-1.04,0.398-1.754,1.19-2.141
		c0.336-0.176,0.502-0.326,0.502-0.449c0-0.088-0.185-0.229-0.555-0.423c-0.758-0.405-1.138-1.111-1.138-2.115
		c0-0.987,0.326-1.675,0.979-2.063c0.441-0.264,0.661-0.441,0.661-0.529c0-0.123-0.035-0.22-0.105-0.291l-0.661-0.423
		c-0.583-0.388-0.873-1.022-0.873-1.904c0-1.146,0.468-1.921,1.402-2.327c0.423-0.176,1.472-0.264,3.146-0.264h14.887
		c0.705,0,1.308,0.25,1.811,0.75C624.611,43.316,624.862,43.907,624.862,44.591z M624.862,60.152c0,1.762-0.996,2.645-2.987,2.645
		h-3.253c-0.142,0-0.212,0.079-0.212,0.238c0,0.105,0.123,0.247,0.37,0.423c0.582,0.388,0.872,1.022,0.872,1.905
		c0,1.762-0.996,2.644-2.987,2.644c-1.04,0-1.78-0.123-2.221-0.37c-0.829-0.494-1.244-1.234-1.244-2.222
		c0-0.687,0.22-1.251,0.661-1.692l0.583-0.476c0.018-0.035,0.029-0.066,0.038-0.092c0.01-0.026,0.023-0.049,0.04-0.067
		c0-0.194-0.08-0.291-0.238-0.291h-1.19c-0.616,0-1.176-0.259-1.679-0.779c-0.502-0.521-0.754-1.105-0.754-1.759
		c0-0.724,0.243-1.327,0.729-1.811s1.089-0.728,1.811-0.728h8.674c0.934,0,1.622,0.176,2.062,0.529
		C624.554,58.76,624.862,59.395,624.862,60.152z M624.862,70.544c0,1.022-0.432,1.78-1.295,2.274
		c-0.389,0.229-1.022,0.344-1.904,0.344c-0.864,0-1.48-0.097-1.852-0.292c-0.935-0.458-1.401-1.198-1.401-2.221
		s0.448-1.78,1.349-2.274c0.404-0.212,1.021-0.317,1.851-0.317c0.935,0,1.604,0.106,2.01,0.317
		C624.448,68.835,624.862,69.557,624.862,70.544z M630.045,54.997c0,0.793-0.282,1.436-0.846,1.93
		c-0.564,0.494-1.287,0.741-2.169,0.741c-2.273,0-3.41-0.891-3.41-2.671c0-0.881,0.282-1.507,0.847-1.877l0.608-0.397
		c0.105-0.088,0.158-0.175,0.158-0.264v-0.106l-0.105-0.105l-0.608-0.37c-0.6-0.388-0.899-1.005-0.899-1.852
		c0-1.798,1.059-2.697,3.173-2.697c2.168,0,3.252,0.846,3.252,2.539c0,0.881-0.326,1.551-0.978,2.009l-0.529,0.371
		c-0.089,0.053-0.142,0.123-0.159,0.212c0,0.123,0.159,0.272,0.477,0.449C629.648,53.295,630.045,53.991,630.045,54.997z
		 M629.992,75.676c0,1.744-1.022,2.616-3.067,2.616c-2.203,0-3.306-0.837-3.306-2.513c0-1.71,0.987-2.564,2.962-2.564
		C628.855,73.215,629.992,74.035,629.992,75.676z"/>
	<linearGradient id="SVGID_5_" gradientUnits="userSpaceOnUse" x1="656.9033" y1="44.6611" x2="643.7327" y2="80.8471">
		<stop  offset="0" style="stop-color:#494D59"/>
		<stop  offset="0.256" style="stop-color:#434955"/>
		<stop  offset="0.6069" style="stop-color:#313F4B"/>
		<stop  offset="0.7927" style="stop-color:#1D3340"/>
		<stop  offset="1" style="stop-color:#012330"/>
	</linearGradient>
	<path fill="url(#SVGID_5_)" d="M662.041,75.702c0,1.762-1.014,2.644-3.039,2.644c-1.031,0-1.743-0.105-2.133-0.316
		c-0.871-0.494-1.307-1.251-1.307-2.275c0-0.846,0.409-1.569,1.229-2.168l0.219-0.159c0.146-0.053,0.219-0.141,0.219-0.264
		c0-0.106-0.147-0.238-0.439-0.397c-0.818-0.423-1.228-1.164-1.228-2.222c0-1.059,0.427-1.78,1.283-2.168
		c0.256-0.159,0.384-0.282,0.384-0.37c-0.02-0.088-0.055-0.159-0.107-0.212l-0.714-0.501c-0.564-0.389-0.846-0.996-0.846-1.825
		c0-0.792,0.216-1.392,0.647-1.798c0.432-0.406,0.647-0.634,0.647-0.687c0-0.159-0.07-0.238-0.212-0.238h-16.21
		c-0.316,0-0.476,0.079-0.476,0.238l0.104,0.212l0.414,0.37c0.501,0.441,0.752,1.058,0.752,1.852c0,0.987-0.374,1.692-1.12,2.115
		c-0.398,0.212-0.598,0.37-0.598,0.476l0.077,0.054l0.157,0.158l0.521,0.397c0.64,0.441,0.963,1.049,0.963,1.824
		c0,1.041-0.321,1.763-0.963,2.168c-0.451,0.3-0.678,0.502-0.678,0.608c0,0.088,0.108,0.176,0.322,0.264
		c0.877,0.37,1.317,1.111,1.317,2.222c0,1.093-0.452,1.868-1.354,2.327c-0.354,0.212-1.009,0.316-1.965,0.316
		c-0.868,0-1.486-0.105-1.857-0.316c-0.868-0.511-1.301-1.27-1.301-2.275c0-1.11,0.433-1.852,1.296-2.222
		c0.229-0.141,0.344-0.247,0.344-0.317c0-0.123-0.22-0.326-0.661-0.608c-0.652-0.405-0.979-1.093-0.979-2.062
		c0-0.969,0.361-1.674,1.084-2.115c0.405-0.229,0.608-0.388,0.608-0.476c0-0.053-0.282-0.273-0.847-0.661
		c-0.563-0.389-0.846-1.031-0.846-1.93c0-1.146,0.433-1.905,1.296-2.275c0.229-0.105,0.344-0.22,0.344-0.344
		c0-0.088-0.036-0.141-0.106-0.159l-0.661-0.423c-0.583-0.389-0.872-1.059-0.872-2.01c0-0.617,0.229-1.19,0.688-1.718
		c0.458-0.528,0.97-0.802,1.533-0.82c0.828-0.018,1.243-0.106,1.243-0.264c-0.105-0.194-0.335-0.449-0.688-0.768
		c-0.404-0.335-0.608-0.899-0.608-1.692c0-1.005,0.433-1.745,1.296-2.221c0.405-0.212,1.093-0.317,2.062-0.317
		c2.097,0,3.146,0.846,3.146,2.539c0,0.724-0.238,1.323-0.714,1.799l-0.478,0.476c-0.069,0.07-0.105,0.132-0.105,0.185
		c0,0.141,0.213,0.212,0.635,0.212h11.053c0.547,0,0.82-0.097,0.82-0.291c0-0.088-0.106-0.212-0.316-0.37
		c-0.618-0.441-0.926-1.093-0.926-1.956c0-1.728,1.031-2.592,3.094-2.592c2.274,0,3.41,0.828,3.41,2.485
		c0,0.935-0.308,1.623-0.925,2.062c-0.229,0.159-0.345,0.308-0.345,0.449s0.335,0.229,1.006,0.264
		c0.67,0.035,1.239,0.305,1.706,0.807c0.467,0.502,0.7,1.08,0.7,1.731c0,0.934-0.301,1.604-0.898,2.01l-0.661,0.423
		c-0.07,0.07-0.107,0.123-0.107,0.159c0,0.106,0.071,0.203,0.213,0.291l0.556,0.37c0.598,0.423,0.898,1.075,0.898,1.956
		c0,0.881-0.281,1.542-0.846,1.983c-0.547,0.352-0.821,0.555-0.821,0.608c0,0.07,0.257,0.291,0.769,0.661
		c0.598,0.352,0.898,1.013,0.898,1.984c0,0.899-0.277,1.547-0.832,1.943c-0.556,0.397-0.833,0.622-0.833,0.675
		c0,0.053,0.194,0.194,0.582,0.423C661.68,74.044,662.041,74.731,662.041,75.702z M647.55,49.656c0,1.798-1.084,2.697-3.252,2.697
		c-2.17,0-3.254-0.864-3.254-2.591c0-1.781,1.014-2.67,3.041-2.67c1.022,0,1.78,0.15,2.274,0.449
		C647.153,47.998,647.55,48.703,647.55,49.656z M651.622,44.445c0,1.762-1.025,2.645-3.08,2.645c-1.036,0-1.765-0.141-2.187-0.423
		c-0.809-0.546-1.211-1.251-1.211-2.115c0-1.763,1.026-2.645,3.081-2.645C650.489,41.907,651.622,42.753,651.622,44.445z
		 M655.773,49.708c0,1.093-0.449,1.868-1.349,2.327c-0.44,0.212-1.11,0.316-2.01,0.316c-0.775,0-1.356-0.105-1.745-0.316
		c-0.934-0.53-1.401-1.27-1.401-2.222c0-1.128,0.45-1.905,1.349-2.327c0.353-0.229,1.04-0.344,2.062-0.344
		C654.742,47.143,655.773,47.998,655.773,49.708z"/>
	<linearGradient id="SVGID_6_" gradientUnits="userSpaceOnUse" x1="704.1338" y1="40.3574" x2="689.7471" y2="79.8846">
		<stop  offset="0" style="stop-color:#494D59"/>
		<stop  offset="0.256" style="stop-color:#434955"/>
		<stop  offset="0.6069" style="stop-color:#313F4B"/>
		<stop  offset="0.7927" style="stop-color:#1D3340"/>
		<stop  offset="1" style="stop-color:#012330"/>
	</linearGradient>
	<path fill="url(#SVGID_6_)" d="M710.562,70.534c0,0.9-0.3,1.588-0.898,2.065c-0.547,0.353-0.82,0.556-0.82,0.609
		c0,0.107,0.146,0.229,0.437,0.371c0.855,0.388,1.282,1.112,1.282,2.172c0,1.235-0.577,2.064-1.732,2.489
		c-0.213,0.07-0.729,0.105-1.546,0.105c-2.134,0-3.2-0.864-3.2-2.591c0-1.04,0.45-1.798,1.349-2.274
		c0.213-0.087,0.317-0.176,0.317-0.264c0-0.105-0.229-0.308-0.688-0.608c-0.652-0.423-0.979-1.093-0.979-2.009
		c0-0.934,0.282-1.561,0.847-1.877l0.715-0.502c0.069-0.069,0.105-0.141,0.105-0.212s-0.257-0.272-0.767-0.607
		c-0.6-0.389-0.9-1.05-0.9-1.984c0-0.952,0.301-1.623,0.9-2.009c0.51-0.317,0.767-0.52,0.767-0.608c0-0.106-0.218-0.3-0.655-0.583
		c-0.673-0.423-1.012-1.11-1.012-2.062c0-0.969,0.373-1.657,1.119-2.062c0.399-0.212,0.6-0.37,0.6-0.477
		c0-0.07-0.036-0.141-0.108-0.212c-1.073-0.634-1.611-1.436-1.611-2.406c0-0.828,0.275-1.473,0.829-1.93
		c0.275-0.229,0.414-0.397,0.414-0.502c0-0.141-0.07-0.212-0.213-0.212h-2.67c-0.617,0-0.925,0.07-0.925,0.212v0.053l0.714,0.767
		c0.353,0.388,0.528,0.89,0.528,1.507c0,0.759-0.259,1.393-0.778,1.905c-0.521,0.512-1.177,0.767-1.971,0.767h-0.714
		c-0.281,0-0.423,0.07-0.423,0.212c0,0.088,0.142,0.247,0.423,0.476c0.582,0.389,0.872,1.022,0.872,1.905
		c0,1.728-1.065,2.592-3.2,2.592c-2.203,0-3.305-0.846-3.305-2.539c0-0.776,0.256-1.393,0.767-1.852
		c0.37-0.3,0.556-0.494,0.556-0.582c0-0.141-0.08-0.212-0.238-0.212l-1.401-0.053c-0.564-0.035-1.084-0.308-1.561-0.82
		c-0.476-0.512-0.714-1.049-0.714-1.614c0-0.899,0.238-1.516,0.714-1.851c0.388-0.352,0.6-0.574,0.634-0.662
		c0-0.035-0.034-0.088-0.105-0.159c-0.035,0-0.062-0.005-0.079-0.014c-0.017-0.009-0.043-0.023-0.079-0.04h-3.411
		c-0.141,0-0.211,0.07-0.211,0.212c0,0.123,0.104,0.256,0.31,0.397c0.604,0.477,0.906,1.138,0.906,1.984
		c0,1.075-0.373,1.78-1.118,2.115c-0.312,0.194-0.468,0.344-0.468,0.449c0,0.104,0.018,0.176,0.052,0.212l0.729,0.583
		c0.537,0.352,0.806,0.952,0.806,1.798c0,0.953-0.32,1.64-0.964,2.062c-0.468,0.3-0.702,0.494-0.702,0.583
		c0,0.105,0.207,0.272,0.617,0.501c0.699,0.476,1.049,1.163,1.049,2.063c0,1.005-0.313,1.683-0.94,2.036
		c-0.484,0.282-0.726,0.485-0.726,0.608c0,0.088,0.134,0.212,0.402,0.37c0.018,0.018,0.09,0.07,0.214,0.159
		c0.699,0.599,1.049,1.287,1.049,2.062c0,0.899-0.277,1.533-0.833,1.904l-0.697,0.477c-0.107,0.053-0.169,0.132-0.188,0.238
		c0,0.088,0.064,0.159,0.188,0.212l0.482,0.317c0.699,0.37,1.049,1.041,1.049,2.01c0,1.762-1.07,2.644-3.213,2.644
		c-2.178,0-3.267-0.881-3.267-2.644c0-0.987,0.38-1.692,1.138-2.116l0.397-0.212c0.053-0.07,0.087-0.141,0.105-0.212
		c0-0.088-0.29-0.344-0.872-0.767c-0.512-0.388-0.767-1.005-0.767-1.852c0-0.934,0.326-1.604,0.978-2.009
		c0.477-0.282,0.715-0.476,0.715-0.582c-0.019-0.053-0.054-0.106-0.106-0.159l-0.768-0.555c-0.546-0.389-0.82-1.031-0.82-1.931
		c0-1.022,0.397-1.728,1.19-2.115l0.345-0.212c0.105-0.07,0.159-0.15,0.159-0.238c0-0.07-0.257-0.264-0.768-0.582
		c-0.618-0.389-0.925-1.076-0.925-2.062c0-0.987,0.361-1.674,1.084-2.062c0.405-0.264,0.608-0.423,0.608-0.476
		c0-0.106-0.273-0.326-0.821-0.661c-0.582-0.423-0.871-1.094-0.871-2.01c0-0.881,0.307-1.525,0.925-1.93l0.661-0.449
		c0.069-0.07,0.106-0.123,0.106-0.159c0-0.123-0.282-0.361-0.847-0.714s-0.846-0.996-0.846-1.93c0-0.899,0.307-1.551,0.925-1.956
		l0.661-0.423c0.069-0.035,0.106-0.115,0.106-0.238c-0.019-0.088-0.054-0.159-0.106-0.213l-0.608-0.37
		c-0.651-0.423-0.978-1.093-0.978-2.01c0-0.758,0.285-1.379,0.855-1.863c0.569-0.485,1.277-0.728,2.12-0.728h0.633
		c1.913,0,2.871,0.865,2.871,2.591c0,0.846-0.284,1.499-0.854,1.957c-0.242,0.194-0.362,0.335-0.362,0.423
		c0,0.176,0.141,0.264,0.423,0.264h3.358c0.74,0,1.371,0.242,1.892,0.728c0.521,0.485,0.779,1.08,0.779,1.785
		c0,0.987-0.308,1.692-0.926,2.115c-0.263,0.123-0.396,0.247-0.396,0.37c0,0.141,0.079,0.212,0.238,0.212h5.949
		c0.212,0,0.316-0.07,0.316-0.212c0-0.087-0.122-0.229-0.37-0.423c-0.582-0.458-0.872-1.11-0.872-1.957
		c0-0.652,0.247-1.251,0.741-1.798c0.492-0.548,1.021-0.82,1.585-0.82h3.915c0.105,0,0.158-0.07,0.158-0.213v-0.16
		c-0.037,0-0.055-0.02-0.055-0.054l-0.636-0.535c-0.368-0.339-0.551-0.872-0.551-1.603c0-1.068,0.451-1.852,1.359-2.35
		c0.407-0.213,1.049-0.321,1.918-0.321c0.89,0,1.537,0.123,1.948,0.37c0.834,0.512,1.251,1.253,1.251,2.225
		c0,0.99-0.448,1.749-1.347,2.278c-0.213,0.125-0.317,0.23-0.317,0.318c0,0.088,0.035,0.167,0.105,0.238l0.608,0.318
		c0.635,0.458,0.952,1.183,0.952,2.17c0,0.937-0.433,1.66-1.295,2.171c-0.213,0.088-0.335,0.196-0.37,0.318
		c0,0.123,0.176,0.291,0.528,0.502c0.759,0.406,1.138,1.104,1.138,2.092c0,1.042-0.449,1.819-1.348,2.33
		c-0.213,0.125-0.317,0.239-0.317,0.346c0.018,0.105,0.088,0.176,0.212,0.212c0.969,0.653,1.454,1.431,1.454,2.33
		c0,0.97-0.344,1.677-1.031,2.119c-0.423,0.264-0.634,0.442-0.634,0.529c0,0.089,0.053,0.168,0.159,0.239l0.555,0.371
		c0.635,0.458,0.952,1.13,0.952,2.012c0,0.936-0.316,1.598-0.952,1.986l-0.613,0.452c-0.07,0-0.106,0.036-0.106,0.106
		c0,0.141,0.142,0.301,0.424,0.478C710.148,68.963,710.562,69.669,710.562,70.534z"/>
	<linearGradient id="SVGID_7_" gradientUnits="userSpaceOnUse" x1="737.1973" y1="42.1543" x2="724.12" y2="78.0838">
		<stop  offset="0" style="stop-color:#494D59"/>
		<stop  offset="0.256" style="stop-color:#434955"/>
		<stop  offset="0.6069" style="stop-color:#313F4B"/>
		<stop  offset="0.7927" style="stop-color:#1D3340"/>
		<stop  offset="1" style="stop-color:#012330"/>
	</linearGradient>
	<path fill="url(#SVGID_7_)" d="M723.52,70.439c0,1.727-0.97,2.591-2.908,2.591c-1.005,0-1.745-0.123-2.222-0.37
		c-0.864-0.476-1.296-1.216-1.296-2.221c0-0.899,0.3-1.533,0.899-1.904l0.661-0.476c0.07-0.07,0.106-0.124,0.106-0.159
		c0-0.088-0.194-0.256-0.582-0.502c-0.724-0.441-1.085-1.137-1.085-2.089c0-1.005,0.485-1.762,1.455-2.274
		c0.141-0.159,0.212-0.256,0.212-0.292c-0.019-0.053-0.035-0.106-0.054-0.159l-0.767-0.529c-0.564-0.423-0.847-1.059-0.847-1.905
		c0-0.899,0.3-1.551,0.899-1.956l0.661-0.423c0.07-0.07,0.106-0.141,0.106-0.212c-0.019-0.088-0.056-0.159-0.109-0.212l-0.736-0.449
		c-0.547-0.405-0.821-1.041-0.821-1.904c0-0.987,0.31-1.667,0.929-2.037c0.492-0.3,0.737-0.485,0.737-0.555
		c0-0.035-0.019-0.07-0.054-0.106l-0.819-0.582c-0.529-0.405-0.794-1.04-0.794-1.905c0-0.758,0.282-1.38,0.847-1.863
		c0.563-0.484,1.288-0.728,2.168-0.728c0.953,0,1.658,0.123,2.115,0.371c0.865,0.476,1.296,1.198,1.296,2.168
		s-0.309,1.657-0.926,2.062l-0.581,0.37c-0.071,0.07-0.107,0.141-0.107,0.212c0.019,0.106,0.07,0.176,0.16,0.212l0.477,0.348
		c0.652,0.423,0.979,1.084,0.979,1.984c0,0.934-0.309,1.604-0.926,2.009l-0.633,0.449c-0.07,0.07-0.107,0.123-0.107,0.159
		c0.019,0.088,0.053,0.141,0.107,0.159l0.58,0.37c0.652,0.423,0.979,1.11,0.979,2.062c0,0.969-0.309,1.64-0.926,2.01l-0.633,0.37
		c-0.035,0.035-0.055,0.088-0.055,0.159c0,0.071,0.036,0.141,0.107,0.212l0.527,0.396c0.652,0.458,0.979,1.128,0.979,2.01
		c0,0.864-0.265,1.489-0.793,1.877l-0.82,0.608c-0.035,0.036-0.054,0.07-0.054,0.106c0,0.088,0.229,0.264,0.688,0.529
		C723.193,68.817,723.52,69.487,723.52,70.439z M739.015,44.591c0,1.054-0.432,1.808-1.294,2.264
		c-0.405,0.227-1.147,0.341-2.222,0.341h-9.757c-1.04,0-1.762-0.115-2.169-0.341c-0.863-0.456-1.295-1.194-1.295-2.211
		c0-1.718,1.031-2.578,3.094-2.578h11.213c0.616,0,1.176,0.259,1.678,0.776C738.764,43.36,739.015,43.942,739.015,44.591z
		 M739.015,75.595c0,1.728-0.977,2.591-2.935,2.591h-8.806c-1.905,0-3.006-0.053-3.307-0.158c-1.128-0.406-1.692-1.198-1.692-2.38
		c0-1.04,0.45-1.78,1.349-2.221c0.37-0.176,1.022-0.264,1.957-0.264h10.551C738.055,73.163,739.015,73.973,739.015,75.595z
		 M744.171,49.774c0,1.754-1.031,2.631-3.094,2.631c-0.951,0-1.621-0.108-2.008-0.322c-0.865-0.501-1.296-1.253-1.296-2.256
		c0-1.755,1.014-2.631,3.041-2.631h0.423C743.193,47.25,744.171,48.11,744.171,49.774z M744.171,70.491
		c0,1.251-0.616,2.062-1.851,2.433c-0.176,0.07-0.758,0.105-1.745,0.105c-0.812,0-1.48-0.229-2.01-0.687
		c-0.528-0.458-0.793-1.058-0.793-1.798c0-1.727,1.049-2.591,3.146-2.591C743.087,67.953,744.171,68.799,744.171,70.491z"/>
	<linearGradient id="SVGID_8_" gradientUnits="userSpaceOnUse" x1="783.6562" y1="42.1543" x2="770.579" y2="78.0838">
		<stop  offset="0" style="stop-color:#494D59"/>
		<stop  offset="0.256" style="stop-color:#434955"/>
		<stop  offset="0.6069" style="stop-color:#313F4B"/>
		<stop  offset="0.7927" style="stop-color:#1D3340"/>
		<stop  offset="1" style="stop-color:#012330"/>
	</linearGradient>
	<path fill="url(#SVGID_8_)" d="M769.979,70.439c0,1.727-0.97,2.591-2.909,2.591c-1.005,0-1.745-0.123-2.221-0.37
		c-0.864-0.476-1.296-1.216-1.296-2.221c0-0.899,0.301-1.533,0.9-1.904l0.661-0.476c0.069-0.07,0.105-0.124,0.105-0.159
		c0-0.088-0.193-0.256-0.583-0.502c-0.723-0.441-1.084-1.137-1.084-2.089c0-1.005,0.486-1.762,1.454-2.274
		c0.142-0.159,0.213-0.256,0.213-0.292c-0.019-0.053-0.035-0.106-0.053-0.159l-0.768-0.529c-0.564-0.423-0.847-1.059-0.847-1.905
		c0-0.899,0.301-1.551,0.9-1.956l0.661-0.423c0.069-0.07,0.105-0.141,0.105-0.212c-0.019-0.088-0.055-0.159-0.109-0.212
		l-0.736-0.449c-0.547-0.405-0.821-1.041-0.821-1.904c0-0.987,0.31-1.667,0.929-2.037c0.492-0.3,0.737-0.485,0.737-0.555
		c0-0.035-0.018-0.07-0.053-0.106l-0.821-0.582c-0.528-0.405-0.793-1.04-0.793-1.905c0-0.758,0.282-1.38,0.846-1.863
		c0.564-0.484,1.288-0.728,2.17-0.728c0.952,0,1.657,0.123,2.115,0.371c0.864,0.476,1.295,1.198,1.295,2.168
		s-0.308,1.657-0.926,2.062l-0.582,0.37c-0.069,0.07-0.105,0.141-0.105,0.212c0.018,0.106,0.069,0.176,0.158,0.212L769,52.957
		c0.652,0.423,0.979,1.084,0.979,1.983c0,0.934-0.308,1.604-0.926,2.009l-0.634,0.449c-0.07,0.07-0.105,0.123-0.105,0.159
		c0.018,0.088,0.053,0.141,0.105,0.159l0.582,0.37c0.652,0.423,0.979,1.111,0.979,2.062c0,0.969-0.308,1.64-0.926,2.01l-0.634,0.37
		c-0.035,0.035-0.053,0.088-0.053,0.159s0.035,0.141,0.106,0.212l0.528,0.397c0.652,0.458,0.979,1.128,0.979,2.009
		c0,0.865-0.264,1.49-0.793,1.877l-0.82,0.608c-0.035,0.035-0.053,0.07-0.053,0.106c0,0.087,0.229,0.264,0.687,0.529
		C769.653,68.817,769.979,69.487,769.979,70.439z M785.475,44.591c0,1.054-0.432,1.808-1.296,2.264
		c-0.404,0.227-1.146,0.341-2.221,0.341H772.2c-1.04,0-1.762-0.115-2.168-0.341c-0.864-0.456-1.295-1.194-1.295-2.211
		c0-1.718,1.031-2.578,3.093-2.578h11.213c0.617,0,1.177,0.259,1.68,0.776C785.224,43.36,785.475,43.942,785.475,44.591z
		 M785.475,75.595c0,1.728-0.979,2.591-2.937,2.591h-8.805c-1.905,0-3.006-0.053-3.306-0.158c-1.128-0.406-1.692-1.198-1.692-2.38
		c0-1.04,0.448-1.78,1.348-2.221c0.37-0.176,1.022-0.264,1.957-0.264h10.55C784.514,73.163,785.475,73.973,785.475,75.595z
		 M790.631,49.774c0,1.754-1.031,2.631-3.093,2.631c-0.953,0-1.623-0.108-2.01-0.322c-0.864-0.501-1.295-1.253-1.295-2.256
		c0-1.755,1.014-2.631,3.04-2.631h0.424C789.652,47.25,790.631,48.11,790.631,49.774z M790.631,70.491
		c0,1.251-0.617,2.062-1.851,2.433c-0.177,0.07-0.758,0.105-1.745,0.105c-0.812,0-1.481-0.229-2.01-0.687
		c-0.529-0.458-0.794-1.058-0.794-1.798c0-1.727,1.051-2.591,3.147-2.591C789.547,67.953,790.631,68.799,790.631,70.491z"/>
	<linearGradient id="SVGID_9_" gradientUnits="userSpaceOnUse" x1="816.7754" y1="44.6611" x2="803.6049" y2="80.8466">
		<stop  offset="0" style="stop-color:#494D59"/>
		<stop  offset="0.256" style="stop-color:#434955"/>
		<stop  offset="0.6069" style="stop-color:#313F4B"/>
		<stop  offset="0.7927" style="stop-color:#1D3340"/>
		<stop  offset="1" style="stop-color:#012330"/>
	</linearGradient>
	<path fill="url(#SVGID_9_)" d="M821.912,75.702c0,1.762-1.013,2.644-3.038,2.644c-1.031,0-1.743-0.105-2.133-0.316
		c-0.872-0.494-1.307-1.251-1.307-2.275c0-0.846,0.409-1.569,1.229-2.168l0.219-0.159c0.146-0.053,0.217-0.141,0.217-0.264
		c0-0.106-0.146-0.238-0.438-0.397c-0.818-0.423-1.229-1.164-1.229-2.222c0-1.059,0.428-1.78,1.284-2.168
		c0.256-0.159,0.382-0.282,0.382-0.37c-0.018-0.088-0.053-0.159-0.105-0.212l-0.714-0.501c-0.564-0.389-0.847-0.996-0.847-1.825
		c0-0.792,0.217-1.392,0.648-1.798c0.432-0.406,0.646-0.634,0.646-0.687c0-0.159-0.069-0.238-0.212-0.238h-16.207
		c-0.315,0-0.476,0.079-0.476,0.238l0.104,0.212l0.414,0.37c0.502,0.441,0.752,1.058,0.752,1.852c0,0.987-0.374,1.692-1.12,2.115
		c-0.398,0.212-0.598,0.37-0.598,0.476l0.077,0.054l0.157,0.158l0.521,0.397c0.64,0.441,0.963,1.049,0.963,1.824
		c0,1.041-0.32,1.763-0.963,2.168c-0.451,0.3-0.678,0.502-0.678,0.608c0,0.088,0.109,0.176,0.322,0.264
		c0.878,0.37,1.317,1.111,1.317,2.222c0,1.093-0.452,1.868-1.354,2.327c-0.354,0.212-1.009,0.316-1.964,0.316
		c-0.868,0-1.486-0.105-1.858-0.316c-0.868-0.511-1.301-1.27-1.301-2.275c0-1.11,0.433-1.852,1.296-2.222
		c0.229-0.141,0.344-0.247,0.344-0.317c0-0.123-0.22-0.326-0.661-0.608c-0.652-0.405-0.979-1.093-0.979-2.062
		c0-0.969,0.361-1.674,1.084-2.115c0.405-0.229,0.608-0.388,0.608-0.476c0-0.053-0.282-0.273-0.847-0.661
		c-0.563-0.389-0.846-1.031-0.846-1.93c0-1.146,0.433-1.905,1.296-2.275c0.229-0.105,0.344-0.22,0.344-0.344
		c0-0.088-0.035-0.141-0.106-0.159l-0.661-0.423c-0.582-0.389-0.872-1.059-0.872-2.01c0-0.617,0.229-1.19,0.688-1.718
		c0.458-0.528,0.97-0.802,1.533-0.82c0.828-0.018,1.243-0.106,1.243-0.264c-0.105-0.194-0.335-0.449-0.688-0.768
		c-0.404-0.335-0.608-0.899-0.608-1.692c0-1.005,0.434-1.745,1.296-2.221c0.405-0.212,1.093-0.317,2.062-0.317
		c2.097,0,3.146,0.846,3.146,2.539c0,0.724-0.237,1.323-0.714,1.799l-0.477,0.476c-0.069,0.07-0.106,0.132-0.106,0.185
		c0,0.141,0.213,0.212,0.635,0.212h11.054c0.546,0,0.819-0.097,0.819-0.291c0-0.088-0.105-0.212-0.316-0.37
		c-0.618-0.441-0.926-1.093-0.926-1.956c0-1.728,1.031-2.592,3.094-2.592c2.274,0,3.41,0.828,3.41,2.485
		c0,0.935-0.308,1.623-0.924,2.062c-0.229,0.159-0.345,0.308-0.345,0.449s0.335,0.229,1.006,0.264
		c0.67,0.035,1.238,0.305,1.705,0.807c0.467,0.502,0.701,1.08,0.701,1.731c0,0.934-0.301,1.604-0.899,2.01l-0.661,0.423
		c-0.07,0.07-0.106,0.123-0.106,0.159c0,0.106,0.07,0.203,0.212,0.291l0.556,0.37c0.599,0.423,0.899,1.075,0.899,1.956
		c0,0.881-0.282,1.542-0.847,1.983c-0.546,0.352-0.82,0.555-0.82,0.608c0,0.07,0.257,0.291,0.768,0.661
		c0.599,0.352,0.899,1.013,0.899,1.984c0,0.899-0.278,1.547-0.833,1.943c-0.556,0.397-0.833,0.622-0.833,0.675
		c0,0.053,0.194,0.194,0.583,0.423C821.551,74.044,821.912,74.731,821.912,75.702z M807.422,49.656c0,1.798-1.084,2.697-3.253,2.697
		s-3.253-0.864-3.253-2.591c0-1.781,1.014-2.67,3.041-2.67c1.022,0,1.78,0.15,2.274,0.449
		C807.025,47.998,807.422,48.703,807.422,49.656z M811.494,44.445c0,1.762-1.026,2.645-3.08,2.645c-1.036,0-1.765-0.141-2.187-0.423
		c-0.809-0.546-1.212-1.251-1.212-2.115c0-1.763,1.027-2.645,3.082-2.645C810.361,41.907,811.494,42.753,811.494,44.445z
		 M815.646,49.708c0,1.093-0.449,1.868-1.349,2.327c-0.44,0.212-1.11,0.316-2.01,0.316c-0.775,0-1.357-0.105-1.745-0.316
		c-0.934-0.53-1.401-1.27-1.401-2.222c0-1.128,0.45-1.905,1.349-2.327c0.352-0.229,1.04-0.344,2.062-0.344
		C814.614,47.143,815.646,47.998,815.646,49.708z"/>
	<linearGradient id="SVGID_10_" gradientUnits="userSpaceOnUse" x1="848.2266" y1="42.1494" x2="834.503" y2="79.8546">
		<stop  offset="0" style="stop-color:#494D59"/>
		<stop  offset="0.256" style="stop-color:#434955"/>
		<stop  offset="0.6069" style="stop-color:#313F4B"/>
		<stop  offset="0.7927" style="stop-color:#1D3340"/>
		<stop  offset="1" style="stop-color:#012330"/>
	</linearGradient>
	<path fill="url(#SVGID_10_)" d="M850.101,44.591c0,0.736-0.257,1.355-0.769,1.856c-0.511,0.501-1.146,0.749-1.903,0.749h-13.248
		c-0.546,0-0.82,0.07-0.82,0.212s0.086,0.282,0.259,0.423c0.638,0.601,0.957,1.237,0.957,1.906c0,1.023-0.354,1.746-1.066,2.17
		c-0.399,0.229-0.598,0.388-0.598,0.477c0.035,0.141,0.08,0.212,0.134,0.212l0.644,0.502c0.592,0.424,0.887,1.051,0.887,1.879
		c0,0.9-0.295,1.553-0.886,1.958l-0.777,0.556c0,0.018-0.005,0.03-0.015,0.04c-0.01,0.009-0.023,0.03-0.04,0.066
		c0,0.088,0.241,0.282,0.726,0.583c0.662,0.423,0.993,1.095,0.993,2.011c0,1.006-0.349,1.711-1.048,2.118
		c-0.412,0.229-0.617,0.388-0.617,0.476c0,0.123,0.169,0.273,0.511,0.449c0.769,0.39,1.153,1.112,1.153,2.171
		c0,0.935-0.492,1.72-1.478,2.356c-0.125,0.07-0.188,0.15-0.188,0.238s0.26,0.308,0.778,0.661c0.592,0.39,0.887,1.032,0.887,1.933
		c0,1.023-0.438,1.764-1.315,2.224c-0.286,0.141-0.438,0.256-0.455,0.344c0,0.123,0.062,0.212,0.188,0.264l0.536,0.371
		c0.698,0.476,1.047,1.129,1.047,1.958c0,1.694-1,2.541-2.999,2.541c-0.974,0-1.62-0.07-1.938-0.212
		c-1.027-0.441-1.54-1.234-1.54-2.379s0.433-1.887,1.295-2.222c0.229-0.088,0.344-0.194,0.344-0.317
		c0-0.123-0.238-0.326-0.714-0.608c-0.617-0.371-0.925-1.04-0.925-2.01c0-0.916,0.308-1.586,0.925-2.009
		c0.476-0.247,0.714-0.423,0.714-0.529c0-0.106-0.018-0.176-0.053-0.212l-0.767-0.502c-0.547-0.335-0.82-0.961-0.82-1.877
		c0-0.969,0.344-1.674,1.031-2.115l0.555-0.264c0.07-0.088,0.106-0.167,0.106-0.238c0-0.088-0.167-0.212-0.502-0.37
		c-0.794-0.494-1.19-1.234-1.19-2.221c0-0.97,0.379-1.675,1.138-2.116c0.37-0.247,0.555-0.405,0.555-0.477
		c0-0.071-0.097-0.159-0.292-0.264c-0.933-0.441-1.4-1.225-1.4-2.354c0-1.04,0.396-1.754,1.19-2.141
		c0.335-0.176,0.502-0.326,0.502-0.449c0-0.088-0.185-0.229-0.555-0.423c-0.759-0.405-1.138-1.111-1.138-2.115
		c0-0.987,0.326-1.675,0.978-2.063c0.441-0.264,0.661-0.441,0.661-0.529c0-0.123-0.034-0.22-0.105-0.291l-0.661-0.423
		c-0.582-0.388-0.872-1.022-0.872-1.904c0-1.146,0.468-1.921,1.4-2.327c0.424-0.176,1.474-0.264,3.146-0.264h14.888
		c0.705,0,1.309,0.25,1.811,0.75C849.85,43.316,850.101,43.907,850.101,44.591z M850.101,60.152c0,1.762-0.997,2.645-2.988,2.645
		h-3.252c-0.142,0-0.213,0.079-0.213,0.238c0,0.105,0.123,0.247,0.37,0.423c0.583,0.388,0.873,1.022,0.873,1.905
		c0,1.762-0.998,2.644-2.988,2.644c-1.04,0-1.78-0.123-2.222-0.37c-0.828-0.494-1.243-1.234-1.243-2.222
		c0-0.687,0.22-1.251,0.66-1.692l0.583-0.476c0.018-0.035,0.03-0.066,0.04-0.092c0.009-0.026,0.021-0.049,0.038-0.067
		c0-0.194-0.078-0.291-0.237-0.291h-1.19c-0.617,0-1.177-0.259-1.679-0.779c-0.502-0.521-0.754-1.105-0.754-1.759
		c0-0.724,0.243-1.327,0.729-1.811c0.484-0.484,1.089-0.728,1.811-0.728h8.674c0.935,0,1.622,0.176,2.062,0.529
		C849.792,58.76,850.101,59.395,850.101,60.152z M850.101,70.544c0,1.022-0.434,1.78-1.296,2.274
		c-0.388,0.229-1.022,0.344-1.905,0.344c-0.863,0-1.479-0.097-1.851-0.292c-0.935-0.458-1.401-1.198-1.401-2.221
		s0.449-1.78,1.349-2.274c0.405-0.212,1.022-0.317,1.851-0.317c0.935,0,1.604,0.106,2.01,0.317
		C849.687,68.835,850.101,69.557,850.101,70.544z M855.283,54.997c0,0.793-0.282,1.436-0.846,1.93
		c-0.564,0.494-1.288,0.741-2.169,0.741c-2.275,0-3.411-0.891-3.411-2.671c0-0.881,0.282-1.507,0.847-1.877l0.607-0.397
		c0.106-0.088,0.159-0.175,0.159-0.264v-0.106l-0.105-0.105l-0.608-0.37c-0.6-0.388-0.899-1.005-0.899-1.852
		c0-1.798,1.059-2.697,3.173-2.697c2.169,0,3.253,0.846,3.253,2.539c0,0.881-0.326,1.551-0.979,2.009l-0.528,0.371
		c-0.089,0.053-0.142,0.123-0.16,0.212c0,0.123,0.16,0.272,0.476,0.449C854.887,53.295,855.283,53.991,855.283,54.997z
		 M855.23,75.676c0,1.744-1.022,2.616-3.068,2.616c-2.203,0-3.306-0.837-3.306-2.513c0-1.71,0.987-2.564,2.962-2.564
		C854.094,73.215,855.23,74.035,855.23,75.676z"/>
	<linearGradient id="SVGID_11_" gradientUnits="userSpaceOnUse" x1="874.7588" y1="38.8599" x2="861.6429" y2="74.8953">
		<stop  offset="0" style="stop-color:#494D59"/>
		<stop  offset="0.256" style="stop-color:#434955"/>
		<stop  offset="0.6069" style="stop-color:#313F4B"/>
		<stop  offset="0.7927" style="stop-color:#1D3340"/>
		<stop  offset="1" style="stop-color:#012330"/>
	</linearGradient>
	<path fill="url(#SVGID_11_)" d="M885.719,44.591c0,1.736-1.013,2.605-3.041,2.605h-7.298c-0.828,0-1.243,0.088-1.243,0.264
		c0,0.036,0.018,0.07,0.054,0.106l0.648,0.635c0.378,0.37,0.567,0.936,0.567,1.693c0,1.077-0.441,1.817-1.316,2.224
		c-0.234,0.106-0.351,0.212-0.351,0.317c0,0.104,0.019,0.176,0.054,0.212l0.672,0.449c0.627,0.406,0.941,1.058,0.941,1.958
		c0,1.077-0.439,1.809-1.315,2.197c-0.27,0.159-0.403,0.291-0.403,0.397s0.134,0.212,0.403,0.317
		c0.876,0.39,1.315,1.147,1.315,2.277c0,0.988-0.476,1.748-1.425,2.277c-0.197,0.105-0.295,0.212-0.295,0.317
		c0,0.088,0.116,0.185,0.349,0.291c0.915,0.406,1.371,1.183,1.371,2.329c0,1.077-0.387,1.801-1.155,2.171
		c-0.375,0.159-0.563,0.282-0.563,0.37c0,0.123,0.147,0.247,0.442,0.37c0.852,0.424,1.277,1.164,1.277,2.223
		c0,0.936-0.32,1.606-0.964,2.012c-0.469,0.3-0.703,0.501-0.703,0.608c0,0.088,0.13,0.194,0.39,0.317
		c0.852,0.405,1.277,1.147,1.277,2.224c0,1.729-1.055,2.593-3.161,2.593c-0.938,0-1.627-0.123-2.071-0.37
		c-0.831-0.495-1.246-1.217-1.246-2.171c0-0.987,0.336-1.675,1.009-2.063l0.574-0.318c0.108-0.07,0.163-0.123,0.163-0.159
		c0-0.141-0.055-0.238-0.163-0.291l-0.629-0.37c-0.635-0.39-0.954-1.059-0.954-2.012c0-0.969,0.372-1.675,1.118-2.117
		c0.417-0.229,0.627-0.37,0.627-0.423c-0.018-0.087-0.055-0.159-0.109-0.212l-0.791-0.503c-0.562-0.335-0.845-0.961-0.845-1.879
		c0-0.952,0.318-1.622,0.954-2.012l0.629-0.37c0.091-0.053,0.146-0.132,0.163-0.238c0-0.07-0.273-0.282-0.819-0.634
		c-0.617-0.406-0.926-1.076-0.926-2.011c0-1.058,0.484-1.817,1.454-2.277c0.194-0.123,0.291-0.212,0.291-0.264
		c-0.018-0.106-0.069-0.176-0.158-0.212l-0.503-0.292c-0.723-0.389-1.084-1.085-1.084-2.092c0-0.969,0.344-1.658,1.031-2.064
		c0.44-0.264,0.661-0.45,0.661-0.555c0-0.106-0.035-0.159-0.105-0.159l-0.556-0.37c-0.688-0.494-1.031-1.164-1.031-2.012
		c0-0.846,0.326-1.534,0.979-2.064c0.212-0.122,0.317-0.248,0.317-0.37c0-0.176-0.361-0.264-1.085-0.264h-7.854
		c-0.776,0-1.429-0.241-1.956-0.724c-0.528-0.481-0.793-1.091-0.793-1.828c0-0.753,0.269-1.372,0.807-1.854
		c0.538-0.483,1.229-0.725,2.075-0.725h21.26c0.74,0,1.305,0.106,1.692,0.314C885.27,42.891,885.719,43.627,885.719,44.591z"/>
	<linearGradient id="SVGID_12_" gradientUnits="userSpaceOnUse" x1="911.2803" y1="40.3662" x2="896.8843" y2="79.9186">
		<stop  offset="0" style="stop-color:#494D59"/>
		<stop  offset="0.256" style="stop-color:#434955"/>
		<stop  offset="0.6069" style="stop-color:#313F4B"/>
		<stop  offset="0.7927" style="stop-color:#1D3340"/>
		<stop  offset="1" style="stop-color:#012330"/>
	</linearGradient>
	<path fill="url(#SVGID_12_)" d="M917.714,75.751c0,1.729-1.006,2.594-3.015,2.594c-1.059,0-1.763-0.105-2.115-0.316
		c-0.898-0.546-1.349-1.305-1.349-2.275c0-1.093,0.485-1.852,1.455-2.274c0.141-0.106,0.211-0.194,0.211-0.264
		c0-0.088-0.276-0.339-0.832-0.753c-0.555-0.414-0.833-1.054-0.833-1.917c0-1.005,0.415-1.727,1.244-2.168
		c0.282-0.141,0.424-0.264,0.424-0.37c0-0.053-0.02-0.106-0.055-0.159l-0.582-0.397c-0.688-0.423-1.031-1.12-1.031-2.09
		c0-0.758,0.229-1.34,0.688-1.745c0.371-0.317,0.555-0.529,0.555-0.634c0-0.159-0.203-0.238-0.607-0.238h-15.31
		c-0.583,0-0.873,0.079-0.873,0.238c0,0.105,0.104,0.229,0.311,0.37c0.604,0.546,0.906,1.216,0.906,2.009
		c0,0.969-0.355,1.667-1.068,2.09l-0.52,0.344c-0.052,0-0.077,0.053-0.077,0.159c0,0.123,0.182,0.282,0.545,0.476
		c0.746,0.423,1.12,1.11,1.12,2.062c0,0.987-0.339,1.692-1.014,2.115c-0.417,0.264-0.635,0.423-0.651,0.476
		c0,0.141,0.224,0.344,0.672,0.608c0.662,0.389,0.994,1.059,0.994,2.01c0,1.762-1.142,2.644-3.426,2.644
		c-2.035,0-3.053-0.864-3.053-2.591c0-1.005,0.345-1.692,1.031-2.062l0.555-0.37c0.054-0.018,0.089-0.053,0.106-0.106
		c0-0.035-0.018-0.079-0.053-0.132l-0.872-0.687c-0.511-0.405-0.768-1.005-0.768-1.798c0-1.11,0.414-1.869,1.244-2.274
		c0.299-0.123,0.448-0.248,0.448-0.37c-0.018-0.053-0.053-0.106-0.106-0.159l-0.767-0.502c-0.546-0.335-0.82-0.979-0.82-1.93
		c0-0.969,0.326-1.658,0.979-2.062l0.607-0.397c0.071,0,0.106-0.053,0.106-0.159c-0.018-0.088-0.053-0.159-0.106-0.212l-0.607-0.317
		c-0.652-0.352-0.979-1.04-0.979-2.062c0-0.969,0.361-1.674,1.085-2.115c0.404-0.247,0.607-0.405,0.607-0.476
		c0-0.088-0.203-0.256-0.607-0.502c-0.724-0.441-1.085-1.146-1.085-2.115c0-1.041,0.361-1.737,1.085-2.09
		c0.404-0.264,0.607-0.432,0.607-0.502c0-0.123-0.132-0.247-0.396-0.37c-0.864-0.335-1.296-1.093-1.296-2.274
		c0-0.935,0.345-1.623,1.031-2.062l0.608-0.37c0.035-0.018,0.053-0.062,0.053-0.132c0-0.123-0.22-0.3-0.661-0.529
		c-0.687-0.37-1.031-1.058-1.031-2.062c0-1.762,1.167-2.645,3.502-2.645c1.984,0,2.977,0.881,2.977,2.645
		c0,0.969-0.479,1.745-1.433,2.326c-0.19,0.106-0.286,0.195-0.286,0.265l0.052,0.079l0.756,0.529
		c0.606,0.441,0.911,1.11,0.911,2.009c0,1.04-0.426,1.78-1.276,2.222c-0.259,0.123-0.39,0.247-0.39,0.37
		c0.018,0.088,0.061,0.159,0.129,0.212l0.468,0.292c0.713,0.388,1.068,1.084,1.068,2.09c0,0.811-0.234,1.41-0.699,1.798
		c-0.346,0.3-0.518,0.502-0.518,0.608c0,0.176,0.326,0.264,0.979,0.264h14.993c0.546,0,0.819-0.087,0.819-0.265
		c0-0.088-0.166-0.273-0.501-0.557c-0.495-0.442-0.741-1.061-0.741-1.857c0-0.884,0.326-1.548,0.979-1.99l0.529-0.398
		c0.105-0.054,0.158-0.107,0.158-0.161c0-0.141-0.018-0.212-0.055-0.212l-0.655-0.425c-0.636-0.424-0.956-1.114-0.956-2.069
		c0-0.938,0.373-1.627,1.119-2.07c0.398-0.248,0.601-0.416,0.601-0.504c0-0.105-0.183-0.248-0.546-0.424
		c-0.782-0.354-1.174-1.061-1.174-2.124c0-1.768,0.995-2.653,2.986-2.653c1.049,0,1.795,0.123,2.238,0.37
		c0.836,0.477,1.253,1.218,1.253,2.225c0,1.042-0.379,1.749-1.137,2.119c-0.353,0.229-0.53,0.389-0.53,0.477
		c0,0.053,0.089,0.167,0.265,0.344c0.935,0.565,1.401,1.325,1.401,2.278c0,0.917-0.282,1.572-0.846,1.96l-0.821,0.53v0.106
		c0,0.123,0.088,0.229,0.265,0.317c0.935,0.478,1.401,1.254,1.401,2.33c0,1.078-0.467,1.837-1.401,2.278
		c-0.194,0.106-0.3,0.203-0.317,0.292c0,0.088,0.257,0.282,0.768,0.582c0.634,0.407,0.952,1.078,0.952,2.013
		c0,0.935-0.317,1.624-0.952,2.065c-0.511,0.264-0.768,0.459-0.768,0.583c0,0.089,0.213,0.257,0.635,0.503
		c0.723,0.39,1.084,1.096,1.084,2.119c0,0.917-0.361,1.598-1.084,2.04l-0.423,0.292c-0.106,0.105-0.16,0.194-0.16,0.264
		c0.019,0.089,0.054,0.159,0.107,0.212l0.423,0.212c0.758,0.388,1.137,1.111,1.137,2.171c0,1.059-0.432,1.801-1.296,2.225
		c-0.246,0.123-0.37,0.256-0.37,0.397c0,0.107,0.142,0.23,0.423,0.371C917.3,73.967,917.714,74.691,917.714,75.751z"/>
	<linearGradient id="SVGID_13_" gradientUnits="userSpaceOnUse" x1="943.8574" y1="40.0708" x2="930.1527" y2="77.7241">
		<stop  offset="0" style="stop-color:#494D59"/>
		<stop  offset="0.256" style="stop-color:#434955"/>
		<stop  offset="0.6069" style="stop-color:#313F4B"/>
		<stop  offset="0.7927" style="stop-color:#1D3340"/>
		<stop  offset="1" style="stop-color:#012330"/>
	</linearGradient>
	<path fill="url(#SVGID_13_)" d="M930.433,54.881c0,1.062-0.435,1.822-1.306,2.281c-0.408,0.23-1.119,0.345-2.134,0.345
		c-2.044,0-3.065-0.857-3.065-2.574c0-1.06,0.473-1.82,1.42-2.281c0.182-0.088,0.272-0.194,0.272-0.318
		c-0.018-0.106-0.088-0.194-0.211-0.265c-0.987-0.635-1.481-1.433-1.481-2.387c0-0.973,0.361-1.663,1.085-2.069
		c0.405-0.23,0.607-0.399,0.607-0.505c0-0.07-0.132-0.176-0.396-0.318c-0.864-0.459-1.296-1.203-1.296-2.229
		c0-1.768,0.979-2.653,2.936-2.653c1.059,0,1.78,0.106,2.17,0.318c0.898,0.513,1.347,1.273,1.347,2.281
		c0,1.043-0.379,1.751-1.137,2.123c-0.37,0.248-0.556,0.406-0.556,0.477c0.035,0.106,0.08,0.168,0.133,0.185l0.476,0.319
		c0.758,0.406,1.137,1.113,1.137,2.122c0,1.043-0.467,1.805-1.399,2.281c-0.177,0.088-0.265,0.177-0.265,0.265
		c0,0.124,0.141,0.266,0.423,0.424C930.019,53.167,930.433,53.892,930.433,54.881z M930.539,70.439c0,0.987-0.45,1.745-1.349,2.275
		c-0.44,0.247-1.128,0.37-2.062,0.37c-2.062,0-3.094-0.846-3.094-2.539c0-1.022,0.441-1.78,1.322-2.274
		c0.37-0.212,1.031-0.317,1.984-0.317C929.473,67.953,930.539,68.782,930.539,70.439z M951.164,70.333
		c0,1.763-1.137,2.645-3.41,2.645c-1.975,0-2.961-0.86-2.961-2.578c0-1.035,0.396-1.754,1.189-2.157
		c0.282-0.139,0.423-0.262,0.423-0.368c0-0.07-0.035-0.141-0.105-0.211l-0.476-0.29c-0.725-0.386-1.085-1.104-1.085-2.157
		c0-0.789,0.37-1.491,1.11-2.104c0.088-0.07,0.132-0.158,0.132-0.263c-0.018-0.017-0.031-0.039-0.04-0.065
		c-0.009-0.027-0.013-0.058-0.013-0.094h-0.106h-0.607h-13.434c-0.705,0-1.312-0.264-1.824-0.793
		c-0.511-0.529-0.767-1.146-0.767-1.852c0-0.687,0.242-1.292,0.727-1.811c0.486-0.519,1.036-0.78,1.654-0.78h14.146
		c0.142,0,0.212-0.079,0.212-0.238c0-0.123-0.118-0.247-0.358-0.37c-0.624-0.477-0.937-1.146-0.937-2.01
		c0-1.005,0.371-1.692,1.117-2.062c0.4-0.194,0.601-0.37,0.601-0.529c0-0.053-0.036-0.106-0.109-0.159l-0.736-0.502
		c-0.582-0.388-0.872-1.031-0.872-1.93c0-1.022,0.392-1.728,1.173-2.116c0.363-0.194,0.545-0.344,0.545-0.449
		c-0.018-0.088-0.053-0.141-0.105-0.159l-0.477-0.317c-0.759-0.511-1.138-1.216-1.138-2.115c0-1.727,1.041-2.591,3.121-2.591
		c1.04,0,1.762,0.141,2.168,0.423c0.759,0.529,1.138,1.234,1.138,2.115c0,1.04-0.414,1.799-1.243,2.275
		c-0.248,0.088-0.37,0.194-0.37,0.317c0,0.141,0.109,0.273,0.327,0.397c0.928,0.494,1.391,1.251,1.391,2.274
		c0,0.969-0.391,1.674-1.174,2.116c-0.362,0.194-0.544,0.335-0.544,0.423c0,0.141,0.091,0.229,0.273,0.264
		c0.963,0.476,1.444,1.251,1.444,2.326c0,1.005-0.428,1.745-1.283,2.222c-0.255,0.159-0.383,0.291-0.383,0.397
		c0,0.087,0.069,0.176,0.212,0.264c0.97,0.599,1.454,1.375,1.454,2.327c0,0.828-0.36,1.516-1.084,2.062l-0.423,0.316
		c-0.106,0.053-0.159,0.106-0.159,0.159c0,0.07,0.035,0.141,0.105,0.212l0.768,0.555c0.529,0.388,0.793,1.022,0.793,1.904
		c0,0.935-0.282,1.561-0.846,1.877l-0.768,0.555c-0.018,0.019-0.035,0.053-0.053,0.106c0,0.106,0.159,0.229,0.477,0.37
		C950.768,68.5,951.164,69.222,951.164,70.333z M946.034,75.542c0,0.723-0.251,1.344-0.754,1.864
		c-0.502,0.52-1.114,0.779-1.838,0.779h-11.449c-0.775,0-1.428-0.242-1.956-0.727c-0.527-0.485-0.793-1.089-0.793-1.812
		c0-0.67,0.256-1.251,0.767-1.745c0.512-0.494,1.104-0.74,1.772-0.74l12.031-0.08c0.563-0.035,1.075,0.204,1.533,0.715
		C945.805,74.309,946.034,74.89,946.034,75.542z"/>
</g>
</svg>
