<?xml version="1.0" encoding="utf-8"?>
<!-- Generator: Adobe Illustrator 16.0.0, SVG Export Plug-In . SVG Version: 6.00 Build 0)  -->
<!DOCTYPE svg PUBLIC "-//W3C//DTD SVG 1.1//EN" "http://www.w3.org/Graphics/SVG/1.1/DTD/svg11.dtd">
<svg version="1.1" id="SaraName" xmlns="http://www.w3.org/2000/svg" xmlns:xlink="http://www.w3.org/1999/xlink" x="0px" y="0px"
	 width="450px" height="100px" viewBox="0 0 450 100" enable-background="new 0 0 450 100" xml:space="preserve">
<g id="Name" enable-background="new    ">
	<linearGradient id="SVGID_1_" gradientUnits="userSpaceOnUse" x1="21.0688" y1="32.0752" x2="8.0024" y2="67.9749">
		<stop  offset="0" style="stop-color:#494D59"/>
		<stop  offset="0.256" style="stop-color:#434955"/>
		<stop  offset="0.6069" style="stop-color:#313F4B"/>
		<stop  offset="0.7927" style="stop-color:#1D3340"/>
		<stop  offset="1" style="stop-color:#012330"/>
	</linearGradient>
	<path fill="url(#SVGID_1_)" stroke="#012330" stroke-miterlimit="10" d="M7.479,45.013c0,0.916-0.461,1.63-1.382,2.141
		c-0.372,0.229-0.982,0.344-1.832,0.344h-0.45c-0.796,0-1.465-0.251-2.005-0.753c-0.538-0.502-0.81-1.124-0.81-1.864
		c0-0.916,0.326-1.577,0.979-1.983L2.562,42.5c0.07-0.07,0.105-0.124,0.105-0.159c-0.018-0.088-0.053-0.159-0.105-0.212
		l-0.688-0.423c-0.582-0.37-0.872-1.022-0.872-1.956c0-1.728,1.036-2.592,3.107-2.592c2.247,0,3.371,0.882,3.371,2.645
		c0,0.916-0.351,1.586-1.048,2.009l-0.563,0.317c-0.072,0.07-0.108,0.141-0.108,0.212c0.018,0.053,0.035,0.105,0.054,0.159
		l0.779,0.502C7.185,43.374,7.479,44.043,7.479,45.013z M7.479,60.324c0,1.005-0.447,1.744-1.34,2.221
		c-0.393,0.213-1.008,0.317-1.847,0.317c-0.964,0-1.678-0.142-2.142-0.423C1.384,61.963,1,61.311,1,60.482
		c0-1.798,1.025-2.697,3.078-2.697c0.964,0,1.669,0.123,2.115,0.371C7.051,58.631,7.479,59.354,7.479,60.324z M22.869,49.984
		c0,0.758-0.256,1.387-0.767,1.891c-0.512,0.503-1.155,0.754-1.931,0.754H9.488c-2.238,0-3.358-0.865-3.358-2.592
		c0-0.952,0.44-1.692,1.322-2.221c0.353-0.212,0.926-0.317,1.719-0.317h11c0.775,0,1.419,0.238,1.931,0.714
		C22.612,48.688,22.869,49.279,22.869,49.984z M22.869,65.467c0,1.736-0.952,2.604-2.855,2.604H8.802
		c-0.758,0-1.393-0.247-1.905-0.742c-0.511-0.496-0.767-1.1-0.767-1.809c0-0.992,0.414-1.729,1.243-2.206
		c0.405-0.248,1.138-0.372,2.194-0.372h10.498c0.812,0,1.48,0.234,2.01,0.703C22.604,64.115,22.869,64.723,22.869,65.467z
		 M22.869,34.489c0,1.781-1.226,2.67-3.676,2.67c-0.388,0-0.68-0.018-0.872-0.053H9.12c-1.94,0-2.909-0.855-2.909-2.564
		c0-1.022,0.433-1.763,1.295-2.221c0.477-0.248,1.234-0.371,2.275-0.371h9.308c1.304,0,2.168,0.123,2.592,0.371
		C22.473,32.796,22.869,33.52,22.869,34.489z M28.104,39.698c0,1.022-0.45,1.78-1.353,2.274c-0.406,0.212-1.046,0.317-1.912,0.317
		c-2.142,0-3.212-0.864-3.212-2.592c0-1.692,1.035-2.539,3.106-2.539C26.981,37.159,28.104,38.005,28.104,39.698z M28.104,60.324
		c0,0.758-0.295,1.428-0.882,2.009c-0.394,0.388-1.268,0.582-2.624,0.582c-1.98,0-2.971-0.847-2.971-2.538
		c0-0.987,0.379-1.692,1.137-2.115c0.37-0.194,0.555-0.336,0.555-0.424c0-0.141-0.07-0.229-0.212-0.264
		c-0.987-0.546-1.479-1.305-1.479-2.274c0-1.745,1.132-2.617,3.399-2.617c2.052,0,3.078,0.854,3.078,2.564
		c0,0.935-0.322,1.595-0.968,1.983l-0.61,0.396c-0.093,0.07-0.139,0.123-0.139,0.16c0,0.158,0.156,0.3,0.471,0.422
		C27.688,58.596,28.104,59.301,28.104,60.324z"/>
	<linearGradient id="SVGID_2_" gradientUnits="userSpaceOnUse" x1="54.9365" y1="34.5449" x2="41.7656" y2="70.7318">
		<stop  offset="0" style="stop-color:#494D59"/>
		<stop  offset="0.256" style="stop-color:#434955"/>
		<stop  offset="0.6069" style="stop-color:#313F4B"/>
		<stop  offset="0.7927" style="stop-color:#1D3340"/>
		<stop  offset="1" style="stop-color:#012330"/>
	</linearGradient>
	<path fill="url(#SVGID_2_)" stroke="#012330" stroke-miterlimit="10" d="M60.074,65.586c0,1.762-1.013,2.645-3.038,2.645
		c-1.031,0-1.743-0.105-2.134-0.316c-0.87-0.494-1.306-1.252-1.306-2.275c0-0.846,0.408-1.569,1.229-2.168l0.218-0.159
		c0.146-0.054,0.219-0.142,0.219-0.265c0-0.105-0.146-0.237-0.438-0.396c-0.82-0.424-1.229-1.164-1.229-2.222
		c0-1.059,0.427-1.78,1.283-2.169c0.255-0.158,0.383-0.281,0.383-0.369c-0.018-0.088-0.054-0.159-0.106-0.213l-0.714-0.502
		c-0.563-0.389-0.846-0.996-0.846-1.824c0-0.793,0.215-1.393,0.646-1.799c0.433-0.405,0.647-0.633,0.647-0.686
		c0-0.16-0.069-0.238-0.211-0.238h-16.21c-0.317,0-0.476,0.078-0.476,0.238l0.104,0.211l0.414,0.37
		c0.501,0.441,0.752,1.058,0.752,1.852c0,0.987-0.374,1.692-1.12,2.115c-0.399,0.212-0.599,0.37-0.599,0.476l0.078,0.055
		l0.155,0.158L38.3,58.5c0.641,0.441,0.964,1.05,0.964,1.824c0,1.041-0.322,1.764-0.964,2.169c-0.45,0.3-0.677,0.503-0.677,0.608
		c0,0.088,0.108,0.176,0.323,0.264c0.877,0.37,1.316,1.111,1.316,2.222c0,1.093-0.452,1.868-1.354,2.327
		c-0.354,0.211-1.01,0.316-1.964,0.316c-0.868,0-1.488-0.105-1.858-0.316c-0.868-0.512-1.301-1.27-1.301-2.275
		c0-1.109,0.432-1.852,1.295-2.222c0.229-0.142,0.345-0.247,0.345-0.317c0-0.122-0.221-0.325-0.661-0.607
		c-0.652-0.404-0.979-1.093-0.979-2.062c0-0.969,0.361-1.674,1.084-2.115c0.405-0.229,0.608-0.389,0.608-0.477
		c0-0.053-0.282-0.272-0.847-0.66c-0.563-0.389-0.846-1.031-0.846-1.931c0-1.146,0.432-1.905,1.295-2.274
		c0.229-0.105,0.345-0.221,0.345-0.344c0-0.088-0.035-0.142-0.106-0.16l-0.662-0.422c-0.581-0.389-0.871-1.059-0.871-2.01
		c0-0.617,0.229-1.19,0.688-1.718c0.457-0.528,0.969-0.802,1.532-0.82c0.829-0.018,1.244-0.106,1.244-0.264
		c-0.106-0.194-0.336-0.449-0.688-0.768c-0.405-0.335-0.608-0.899-0.608-1.692c0-1.005,0.433-1.745,1.296-2.221
		c0.404-0.212,1.093-0.317,2.062-0.317c2.098,0,3.146,0.846,3.146,2.539c0,0.724-0.238,1.323-0.714,1.799l-0.476,0.476
		c-0.069,0.07-0.106,0.132-0.106,0.185c0,0.141,0.212,0.212,0.634,0.212h11.053c0.547,0,0.821-0.097,0.821-0.291
		c0-0.088-0.105-0.212-0.317-0.37c-0.617-0.441-0.926-1.093-0.926-1.956c0-1.728,1.031-2.592,3.094-2.592
		c2.275,0,3.411,0.828,3.411,2.485c0,0.935-0.309,1.623-0.925,2.062c-0.229,0.159-0.344,0.308-0.344,0.449s0.335,0.229,1.005,0.264
		c0.669,0.035,1.239,0.305,1.706,0.807c0.466,0.502,0.7,1.08,0.7,1.731c0,0.934-0.3,1.604-0.899,2.01l-0.661,0.422
		c-0.069,0.07-0.105,0.123-0.105,0.16c0,0.105,0.069,0.202,0.211,0.291l0.556,0.369c0.6,0.424,0.899,1.075,0.899,1.957
		c0,0.881-0.282,1.541-0.847,1.982c-0.545,0.353-0.819,0.556-0.819,0.609c0,0.069,0.255,0.291,0.767,0.66
		c0.6,0.352,0.899,1.014,0.899,1.984c0,0.898-0.277,1.547-0.832,1.943c-0.556,0.396-0.833,0.621-0.833,0.674
		c0,0.054,0.193,0.195,0.581,0.424C59.713,63.928,60.074,64.615,60.074,65.586z M45.583,39.54c0,1.798-1.084,2.697-3.252,2.697
		s-3.253-0.864-3.253-2.591c0-1.781,1.013-2.67,3.041-2.67c1.021,0,1.779,0.15,2.274,0.449
		C45.187,37.882,45.583,38.587,45.583,39.54z M49.655,34.33c0,1.762-1.026,2.645-3.081,2.645c-1.036,0-1.764-0.141-2.186-0.423
		c-0.809-0.546-1.212-1.251-1.212-2.115c0-1.763,1.027-2.645,3.082-2.645C48.522,31.791,49.655,32.637,49.655,34.33z M53.807,39.593
		c0,1.093-0.448,1.868-1.349,2.327c-0.44,0.212-1.109,0.316-2.008,0.316c-0.777,0-1.357-0.105-1.745-0.316
		c-0.935-0.53-1.402-1.27-1.402-2.222c0-1.128,0.449-1.905,1.348-2.327c0.353-0.229,1.041-0.344,2.062-0.344
		C52.775,37.027,53.807,37.882,53.807,39.593z"/>
	<linearGradient id="SVGID_3_" gradientUnits="userSpaceOnUse" x1="86.3872" y1="32.0332" x2="72.6638" y2="69.7379">
		<stop  offset="0" style="stop-color:#494D59"/>
		<stop  offset="0.256" style="stop-color:#434955"/>
		<stop  offset="0.6069" style="stop-color:#313F4B"/>
		<stop  offset="0.7927" style="stop-color:#1D3340"/>
		<stop  offset="1" style="stop-color:#012330"/>
	</linearGradient>
	<path fill="url(#SVGID_3_)" stroke="#012330" stroke-miterlimit="10" d="M88.262,34.475c0,0.736-0.256,1.355-0.767,1.856
		c-0.512,0.501-1.147,0.749-1.905,0.749H72.343c-0.546,0-0.82,0.07-0.82,0.212s0.086,0.282,0.259,0.423
		c0.637,0.601,0.958,1.237,0.958,1.906c0,1.023-0.356,1.746-1.067,2.17c-0.398,0.229-0.598,0.388-0.598,0.477
		c0.034,0.141,0.079,0.212,0.133,0.212l0.645,0.502c0.592,0.424,0.888,1.051,0.888,1.879c0,0.9-0.296,1.553-0.887,1.958
		l-0.777,0.556c0,0.018-0.007,0.03-0.016,0.04c-0.009,0.009-0.021,0.03-0.039,0.066c0,0.088,0.243,0.282,0.726,0.583
		c0.662,0.423,0.994,1.095,0.994,2.011c0,1.007-0.35,1.712-1.048,2.118c-0.412,0.229-0.618,0.388-0.618,0.476
		c0,0.122,0.168,0.272,0.51,0.448c0.771,0.391,1.155,1.112,1.155,2.172c0,0.935-0.495,1.719-1.479,2.355
		c-0.125,0.07-0.187,0.15-0.187,0.238s0.259,0.308,0.777,0.66c0.592,0.391,0.887,1.033,0.887,1.934c0,1.023-0.438,1.764-1.315,2.223
		c-0.286,0.142-0.438,0.257-0.456,0.345c0,0.123,0.063,0.212,0.188,0.265l0.539,0.371c0.697,0.476,1.047,1.129,1.047,1.957
		c0,1.694-1.001,2.541-3.001,2.541c-0.974,0-1.619-0.07-1.938-0.213c-1.027-0.441-1.54-1.233-1.54-2.379s0.432-1.887,1.295-2.222
		c0.229-0.089,0.344-0.194,0.344-0.317c0-0.122-0.237-0.326-0.714-0.607c-0.616-0.371-0.925-1.04-0.925-2.01
		c0-0.916,0.309-1.586,0.925-2.01c0.477-0.246,0.714-0.422,0.714-0.529c0-0.105-0.018-0.176-0.053-0.211l-0.767-0.502
		c-0.547-0.336-0.821-0.962-0.821-1.878c0-0.97,0.344-1.675,1.031-2.115l0.556-0.265c0.069-0.088,0.105-0.166,0.105-0.237
		c0-0.089-0.166-0.212-0.502-0.37c-0.792-0.494-1.19-1.234-1.19-2.221c0-0.97,0.38-1.675,1.138-2.116
		c0.37-0.247,0.555-0.405,0.555-0.477c0-0.071-0.097-0.159-0.29-0.264c-0.935-0.441-1.402-1.225-1.402-2.354
		c0-1.04,0.398-1.754,1.19-2.141c0.336-0.176,0.502-0.326,0.502-0.449c0-0.088-0.185-0.229-0.555-0.423
		c-0.758-0.405-1.138-1.111-1.138-2.115c0-0.987,0.326-1.675,0.979-2.063c0.441-0.264,0.661-0.441,0.661-0.529
		c0-0.123-0.035-0.22-0.105-0.291l-0.661-0.423c-0.583-0.388-0.873-1.022-0.873-1.904c0-1.146,0.468-1.921,1.402-2.327
		c0.423-0.176,1.472-0.264,3.146-0.264h14.887c0.705,0,1.308,0.25,1.811,0.75C88.011,33.2,88.262,33.792,88.262,34.475z
		 M88.262,50.037c0,1.762-0.996,2.645-2.987,2.645h-3.253c-0.142,0-0.212,0.078-0.212,0.238c0,0.105,0.123,0.246,0.37,0.422
		c0.582,0.389,0.872,1.022,0.872,1.905c0,1.763-0.996,2.644-2.987,2.644c-1.04,0-1.78-0.123-2.221-0.369
		C77.015,57.027,76.6,56.287,76.6,55.3c0-0.687,0.22-1.251,0.661-1.692l0.583-0.477c0.018-0.035,0.029-0.066,0.038-0.092
		c0.01-0.025,0.023-0.049,0.04-0.066c0-0.194-0.08-0.291-0.238-0.291h-1.19c-0.616,0-1.176-0.26-1.679-0.779
		c-0.502-0.521-0.754-1.106-0.754-1.759c0-0.724,0.243-1.327,0.729-1.811s1.089-0.728,1.811-0.728h8.674
		c0.934,0,1.622,0.176,2.062,0.529C87.953,48.645,88.262,49.279,88.262,50.037z M88.262,60.429c0,1.022-0.432,1.78-1.295,2.274
		c-0.389,0.229-1.022,0.344-1.904,0.344c-0.864,0-1.48-0.096-1.852-0.291c-0.935-0.457-1.401-1.197-1.401-2.221
		s0.448-1.781,1.349-2.275c0.404-0.211,1.021-0.316,1.851-0.316c0.935,0,1.604,0.105,2.01,0.316
		C87.848,58.72,88.262,59.441,88.262,60.429z M93.444,44.881c0,0.793-0.282,1.436-0.846,1.93c-0.564,0.494-1.287,0.741-2.169,0.741
		c-2.273,0-3.41-0.891-3.41-2.671c0-0.881,0.282-1.507,0.847-1.877l0.608-0.397c0.105-0.088,0.158-0.175,0.158-0.264v-0.106
		l-0.105-0.105l-0.608-0.37c-0.6-0.388-0.899-1.005-0.899-1.852c0-1.798,1.059-2.697,3.173-2.697c2.168,0,3.252,0.846,3.252,2.539
		c0,0.881-0.326,1.551-0.978,2.009l-0.529,0.371c-0.089,0.053-0.142,0.123-0.159,0.212c0,0.123,0.159,0.272,0.477,0.449
		C93.048,43.18,93.444,43.875,93.444,44.881z M93.392,65.561c0,1.744-1.022,2.615-3.067,2.615c-2.203,0-3.306-0.837-3.306-2.512
		c0-1.711,0.987-2.564,2.962-2.564C92.255,63.1,93.392,63.92,93.392,65.561z"/>
	<linearGradient id="SVGID_4_" gradientUnits="userSpaceOnUse" x1="120.3027" y1="34.5449" x2="107.1316" y2="70.7323">
		<stop  offset="0" style="stop-color:#494D59"/>
		<stop  offset="0.256" style="stop-color:#434955"/>
		<stop  offset="0.6069" style="stop-color:#313F4B"/>
		<stop  offset="0.7927" style="stop-color:#1D3340"/>
		<stop  offset="1" style="stop-color:#012330"/>
	</linearGradient>
	<path fill="url(#SVGID_4_)" stroke="#012330" stroke-miterlimit="10" d="M125.44,65.586c0,1.762-1.014,2.645-3.039,2.645
		c-1.031,0-1.743-0.105-2.133-0.316c-0.871-0.494-1.307-1.252-1.307-2.275c0-0.846,0.409-1.569,1.229-2.168l0.219-0.159
		c0.146-0.054,0.219-0.142,0.219-0.265c0-0.105-0.147-0.237-0.439-0.396c-0.818-0.424-1.228-1.164-1.228-2.222
		c0-1.059,0.427-1.78,1.283-2.169c0.256-0.158,0.384-0.281,0.384-0.369c-0.02-0.088-0.055-0.159-0.107-0.213l-0.714-0.502
		c-0.564-0.389-0.846-0.996-0.846-1.824c0-0.793,0.216-1.393,0.647-1.799c0.432-0.405,0.647-0.633,0.647-0.686
		c0-0.16-0.07-0.238-0.212-0.238h-16.21c-0.316,0-0.476,0.078-0.476,0.238l0.104,0.211l0.414,0.37
		c0.501,0.441,0.752,1.058,0.752,1.852c0,0.987-0.374,1.692-1.12,2.115c-0.398,0.212-0.598,0.37-0.598,0.476l0.077,0.055
		l0.157,0.158l0.521,0.396c0.64,0.441,0.963,1.05,0.963,1.824c0,1.041-0.321,1.764-0.963,2.169c-0.451,0.3-0.678,0.503-0.678,0.608
		c0,0.088,0.108,0.176,0.322,0.264c0.877,0.37,1.317,1.111,1.317,2.222c0,1.093-0.452,1.868-1.354,2.327
		c-0.354,0.211-1.009,0.316-1.965,0.316c-0.868,0-1.486-0.105-1.857-0.316c-0.868-0.512-1.301-1.27-1.301-2.275
		c0-1.109,0.433-1.852,1.296-2.222c0.229-0.142,0.344-0.247,0.344-0.317c0-0.122-0.22-0.325-0.661-0.607
		c-0.652-0.404-0.979-1.093-0.979-2.062c0-0.969,0.361-1.674,1.084-2.115c0.405-0.229,0.608-0.389,0.608-0.477
		c0-0.053-0.282-0.272-0.847-0.66c-0.563-0.389-0.846-1.031-0.846-1.931c0-1.146,0.433-1.905,1.296-2.274
		c0.229-0.105,0.344-0.221,0.344-0.344c0-0.088-0.036-0.142-0.106-0.16l-0.661-0.422c-0.583-0.389-0.872-1.059-0.872-2.01
		c0-0.617,0.229-1.19,0.688-1.718c0.458-0.528,0.97-0.802,1.533-0.82c0.828-0.018,1.243-0.106,1.243-0.264
		c-0.105-0.194-0.335-0.449-0.688-0.768c-0.404-0.335-0.608-0.899-0.608-1.692c0-1.005,0.433-1.745,1.296-2.221
		c0.405-0.212,1.093-0.317,2.062-0.317c2.097,0,3.146,0.846,3.146,2.539c0,0.724-0.238,1.323-0.714,1.799l-0.478,0.476
		c-0.069,0.07-0.105,0.132-0.105,0.185c0,0.141,0.213,0.212,0.635,0.212h11.053c0.547,0,0.82-0.097,0.82-0.291
		c0-0.088-0.106-0.212-0.316-0.37c-0.618-0.441-0.926-1.093-0.926-1.956c0-1.728,1.031-2.592,3.094-2.592
		c2.274,0,3.41,0.828,3.41,2.485c0,0.935-0.308,1.623-0.925,2.062c-0.229,0.159-0.345,0.308-0.345,0.449s0.335,0.229,1.006,0.264
		c0.67,0.035,1.239,0.305,1.706,0.807c0.467,0.502,0.7,1.08,0.7,1.731c0,0.934-0.301,1.604-0.898,2.01l-0.661,0.422
		c-0.07,0.07-0.107,0.123-0.107,0.16c0,0.105,0.071,0.202,0.213,0.291l0.556,0.369c0.598,0.424,0.898,1.075,0.898,1.957
		c0,0.881-0.281,1.541-0.846,1.982c-0.547,0.353-0.821,0.556-0.821,0.609c0,0.069,0.257,0.291,0.769,0.66
		c0.598,0.352,0.898,1.014,0.898,1.984c0,0.898-0.277,1.547-0.832,1.943c-0.556,0.396-0.833,0.621-0.833,0.674
		c0,0.054,0.194,0.195,0.582,0.424C125.079,63.928,125.44,64.615,125.44,65.586z M110.949,39.54c0,1.798-1.084,2.697-3.252,2.697
		c-2.17,0-3.254-0.864-3.254-2.591c0-1.781,1.014-2.67,3.041-2.67c1.022,0,1.78,0.15,2.274,0.449
		C110.553,37.882,110.949,38.587,110.949,39.54z M115.021,34.33c0,1.762-1.025,2.645-3.08,2.645c-1.036,0-1.765-0.141-2.187-0.423
		c-0.809-0.546-1.211-1.251-1.211-2.115c0-1.763,1.026-2.645,3.081-2.645C113.889,31.791,115.021,32.637,115.021,34.33z
		 M119.173,39.593c0,1.093-0.449,1.868-1.349,2.327c-0.44,0.212-1.11,0.316-2.01,0.316c-0.775,0-1.356-0.105-1.745-0.316
		c-0.934-0.53-1.401-1.27-1.401-2.222c0-1.128,0.45-1.905,1.349-2.327c0.353-0.229,1.04-0.344,2.062-0.344
		C118.142,37.027,119.173,37.882,119.173,39.593z"/>
	<linearGradient id="SVGID_5_" gradientUnits="userSpaceOnUse" x1="167.5327" y1="30.2412" x2="153.146" y2="69.7684">
		<stop  offset="0" style="stop-color:#494D59"/>
		<stop  offset="0.256" style="stop-color:#434955"/>
		<stop  offset="0.6069" style="stop-color:#313F4B"/>
		<stop  offset="0.7927" style="stop-color:#1D3340"/>
		<stop  offset="1" style="stop-color:#012330"/>
	</linearGradient>
	<path fill="url(#SVGID_5_)" stroke="#012330" stroke-miterlimit="10" d="M173.962,60.418c0,0.9-0.3,1.589-0.898,2.065
		c-0.547,0.353-0.82,0.556-0.82,0.609c0,0.106,0.146,0.229,0.437,0.37c0.855,0.389,1.282,1.112,1.282,2.173
		c0,1.235-0.577,2.064-1.732,2.489c-0.213,0.069-0.729,0.105-1.546,0.105c-2.134,0-3.2-0.864-3.2-2.592
		c0-1.04,0.45-1.798,1.349-2.274c0.213-0.087,0.317-0.176,0.317-0.265c0-0.105-0.229-0.307-0.688-0.607
		c-0.652-0.424-0.979-1.093-0.979-2.01c0-0.934,0.282-1.561,0.847-1.877l0.715-0.502c0.069-0.07,0.105-0.141,0.105-0.213
		c0-0.07-0.257-0.271-0.767-0.607c-0.6-0.389-0.9-1.049-0.9-1.983c0-0.952,0.301-1.622,0.9-2.009
		c0.51-0.318,0.767-0.521,0.767-0.608c0-0.106-0.218-0.3-0.655-0.583c-0.673-0.422-1.012-1.109-1.012-2.062
		c0-0.969,0.373-1.657,1.119-2.062c0.399-0.212,0.6-0.37,0.6-0.477c0-0.07-0.036-0.141-0.108-0.212
		c-1.073-0.634-1.611-1.436-1.611-2.406c0-0.828,0.275-1.473,0.829-1.93c0.275-0.229,0.414-0.397,0.414-0.502
		c0-0.141-0.07-0.212-0.213-0.212h-2.67c-0.617,0-0.925,0.07-0.925,0.212v0.053l0.714,0.767c0.353,0.388,0.528,0.89,0.528,1.507
		c0,0.759-0.259,1.393-0.778,1.905c-0.521,0.512-1.177,0.767-1.971,0.767h-0.714c-0.281,0-0.423,0.07-0.423,0.212
		c0,0.088,0.142,0.247,0.423,0.476c0.582,0.389,0.872,1.022,0.872,1.905c0,1.728-1.065,2.592-3.2,2.592
		c-2.203,0-3.305-0.847-3.305-2.539c0-0.776,0.256-1.393,0.767-1.852c0.37-0.3,0.556-0.494,0.556-0.582
		c0-0.141-0.08-0.212-0.238-0.212l-1.401-0.053c-0.564-0.035-1.084-0.308-1.561-0.82c-0.476-0.512-0.714-1.049-0.714-1.614
		c0-0.899,0.238-1.516,0.714-1.851c0.388-0.352,0.6-0.574,0.634-0.662c0-0.035-0.034-0.088-0.105-0.159
		c-0.035,0-0.062-0.005-0.079-0.014c-0.017-0.009-0.043-0.023-0.079-0.04h-3.411c-0.141,0-0.211,0.07-0.211,0.212
		c0,0.123,0.104,0.256,0.31,0.397c0.604,0.477,0.906,1.138,0.906,1.984c0,1.075-0.373,1.78-1.118,2.115
		c-0.312,0.194-0.468,0.344-0.468,0.449c0,0.104,0.018,0.176,0.052,0.212l0.729,0.583c0.537,0.352,0.806,0.952,0.806,1.798
		c0,0.953-0.32,1.639-0.964,2.063c-0.468,0.3-0.702,0.494-0.702,0.582c0,0.105,0.207,0.272,0.617,0.502
		c0.699,0.476,1.049,1.162,1.049,2.062c0,1.006-0.313,1.683-0.94,2.035c-0.484,0.283-0.726,0.486-0.726,0.609
		c0,0.088,0.134,0.211,0.402,0.369c0.018,0.019,0.09,0.07,0.214,0.16c0.699,0.599,1.049,1.287,1.049,2.062
		c0,0.898-0.277,1.533-0.833,1.903l-0.697,0.477c-0.107,0.054-0.169,0.132-0.188,0.238c0,0.088,0.064,0.159,0.188,0.212l0.482,0.316
		c0.699,0.371,1.049,1.041,1.049,2.01c0,1.763-1.07,2.645-3.213,2.645c-2.178,0-3.267-0.881-3.267-2.645
		c0-0.986,0.38-1.691,1.138-2.115l0.397-0.212c0.053-0.069,0.087-0.142,0.105-0.212c0-0.088-0.29-0.345-0.872-0.768
		c-0.512-0.388-0.767-1.006-0.767-1.852c0-0.934,0.326-1.604,0.978-2.01c0.477-0.281,0.715-0.475,0.715-0.582
		c-0.019-0.053-0.054-0.105-0.106-0.158l-0.768-0.555c-0.546-0.389-0.82-1.031-0.82-1.932c0-1.021,0.397-1.727,1.19-2.115
		l0.345-0.211c0.105-0.07,0.159-0.15,0.159-0.238c0-0.07-0.257-0.265-0.768-0.582c-0.618-0.389-0.925-1.076-0.925-2.063
		c0-0.987,0.361-1.674,1.084-2.062c0.405-0.264,0.608-0.423,0.608-0.476c0-0.106-0.273-0.326-0.821-0.661
		c-0.582-0.423-0.871-1.094-0.871-2.01c0-0.881,0.307-1.525,0.925-1.93l0.661-0.449c0.069-0.07,0.106-0.123,0.106-0.159
		c0-0.123-0.282-0.361-0.847-0.714s-0.846-0.996-0.846-1.93c0-0.899,0.307-1.551,0.925-1.956l0.661-0.423
		c0.069-0.035,0.106-0.115,0.106-0.238c-0.019-0.088-0.054-0.159-0.106-0.213l-0.608-0.37c-0.651-0.423-0.978-1.093-0.978-2.01
		c0-0.758,0.285-1.379,0.855-1.863c0.569-0.485,1.277-0.728,2.12-0.728h0.633c1.913,0,2.871,0.865,2.871,2.591
		c0,0.846-0.284,1.499-0.854,1.957c-0.242,0.194-0.362,0.335-0.362,0.423c0,0.176,0.141,0.264,0.423,0.264h3.358
		c0.74,0,1.371,0.242,1.892,0.728c0.521,0.485,0.779,1.08,0.779,1.785c0,0.987-0.308,1.692-0.926,2.115
		c-0.263,0.123-0.396,0.247-0.396,0.37c0,0.141,0.079,0.212,0.238,0.212h5.949c0.212,0,0.316-0.07,0.316-0.212
		c0-0.087-0.122-0.229-0.37-0.423c-0.582-0.458-0.872-1.11-0.872-1.957c0-0.652,0.247-1.251,0.741-1.798
		c0.492-0.548,1.021-0.82,1.585-0.82h3.915c0.105,0,0.158-0.07,0.158-0.213v-0.16c-0.037,0-0.055-0.02-0.055-0.054l-0.636-0.535
		c-0.368-0.339-0.551-0.872-0.551-1.603c0-1.068,0.451-1.852,1.359-2.35c0.407-0.213,1.049-0.321,1.918-0.321
		c0.89,0,1.537,0.123,1.948,0.37c0.834,0.512,1.251,1.253,1.251,2.225c0,0.99-0.448,1.749-1.347,2.278
		c-0.213,0.125-0.317,0.23-0.317,0.318c0,0.088,0.035,0.167,0.105,0.238l0.608,0.318c0.635,0.458,0.952,1.183,0.952,2.17
		c0,0.937-0.433,1.66-1.295,2.171c-0.213,0.088-0.335,0.196-0.37,0.318c0,0.123,0.176,0.291,0.528,0.502
		c0.759,0.406,1.138,1.104,1.138,2.092c0,1.042-0.449,1.819-1.348,2.33c-0.213,0.125-0.317,0.239-0.317,0.346
		c0.018,0.105,0.088,0.176,0.212,0.212c0.969,0.653,1.454,1.431,1.454,2.33c0,0.97-0.344,1.677-1.031,2.119
		c-0.423,0.265-0.634,0.443-0.634,0.529c0,0.09,0.053,0.168,0.159,0.239l0.555,0.37c0.635,0.459,0.952,1.131,0.952,2.013
		c0,0.936-0.316,1.598-0.952,1.985l-0.613,0.453c-0.07,0-0.106,0.035-0.106,0.105c0,0.141,0.142,0.301,0.424,0.478
		C173.548,58.848,173.962,59.553,173.962,60.418z"/>
	<linearGradient id="SVGID_6_" gradientUnits="userSpaceOnUse" x1="200.5962" y1="32.0381" x2="187.5191" y2="67.9671">
		<stop  offset="0" style="stop-color:#494D59"/>
		<stop  offset="0.256" style="stop-color:#434955"/>
		<stop  offset="0.6069" style="stop-color:#313F4B"/>
		<stop  offset="0.7927" style="stop-color:#1D3340"/>
		<stop  offset="1" style="stop-color:#012330"/>
	</linearGradient>
	<path fill="url(#SVGID_6_)" stroke="#012330" stroke-miterlimit="10" d="M186.919,60.324c0,1.727-0.97,2.591-2.908,2.591
		c-1.005,0-1.745-0.122-2.222-0.37c-0.864-0.477-1.296-1.216-1.296-2.221c0-0.899,0.3-1.533,0.899-1.904l0.661-0.477
		c0.07-0.07,0.106-0.123,0.106-0.159c0-0.088-0.194-0.256-0.582-0.502c-0.724-0.44-1.085-1.138-1.085-2.089
		c0-1.006,0.485-1.763,1.455-2.275c0.141-0.158,0.212-0.256,0.212-0.291c-0.019-0.053-0.035-0.105-0.054-0.158l-0.767-0.529
		c-0.564-0.424-0.847-1.059-0.847-1.905c0-0.899,0.3-1.551,0.899-1.956l0.661-0.423c0.07-0.07,0.106-0.141,0.106-0.212
		c-0.019-0.088-0.056-0.159-0.109-0.212l-0.736-0.449c-0.547-0.405-0.821-1.041-0.821-1.904c0-0.987,0.31-1.667,0.929-2.037
		c0.492-0.3,0.737-0.485,0.737-0.555c0-0.035-0.019-0.07-0.054-0.106l-0.819-0.582c-0.529-0.405-0.794-1.04-0.794-1.905
		c0-0.758,0.282-1.38,0.847-1.863c0.563-0.484,1.288-0.728,2.168-0.728c0.953,0,1.658,0.123,2.115,0.371
		c0.865,0.476,1.296,1.198,1.296,2.168s-0.309,1.657-0.926,2.062l-0.581,0.37c-0.071,0.07-0.107,0.141-0.107,0.212
		c0.019,0.106,0.07,0.176,0.16,0.212l0.477,0.348c0.652,0.423,0.979,1.084,0.979,1.984c0,0.934-0.309,1.604-0.926,2.009
		l-0.633,0.449c-0.07,0.07-0.107,0.123-0.107,0.159c0.019,0.088,0.053,0.141,0.107,0.159l0.58,0.37
		c0.652,0.423,0.979,1.11,0.979,2.062c0,0.969-0.309,1.639-0.926,2.01l-0.633,0.369c-0.035,0.035-0.055,0.088-0.055,0.159
		s0.036,0.142,0.107,0.212l0.527,0.396c0.652,0.458,0.979,1.128,0.979,2.01c0,0.863-0.265,1.488-0.793,1.877l-0.82,0.607
		c-0.035,0.035-0.054,0.07-0.054,0.106c0,0.089,0.229,0.265,0.688,0.528C186.593,58.701,186.919,59.371,186.919,60.324z
		 M202.414,34.475c0,1.054-0.432,1.808-1.294,2.264c-0.405,0.227-1.147,0.341-2.222,0.341h-9.757c-1.04,0-1.762-0.115-2.169-0.341
		c-0.863-0.456-1.295-1.194-1.295-2.211c0-1.718,1.031-2.578,3.094-2.578h11.213c0.616,0,1.176,0.259,1.678,0.776
		C202.163,33.245,202.414,33.827,202.414,34.475z M202.414,65.479c0,1.728-0.977,2.591-2.935,2.591h-8.806
		c-1.905,0-3.006-0.053-3.307-0.158c-1.128-0.405-1.692-1.197-1.692-2.379c0-1.041,0.45-1.781,1.349-2.222
		c0.37-0.177,1.022-0.265,1.957-0.265h10.551C201.454,63.047,202.414,63.857,202.414,65.479z M207.57,39.658
		c0,1.754-1.031,2.631-3.094,2.631c-0.951,0-1.621-0.108-2.008-0.322c-0.865-0.501-1.296-1.253-1.296-2.256
		c0-1.755,1.014-2.631,3.041-2.631h0.423C206.593,37.134,207.57,37.994,207.57,39.658z M207.57,60.375
		c0,1.252-0.616,2.062-1.851,2.434c-0.176,0.07-0.758,0.105-1.745,0.105c-0.812,0-1.48-0.229-2.01-0.688
		c-0.528-0.457-0.793-1.058-0.793-1.798c0-1.728,1.049-2.591,3.146-2.591C206.486,57.838,207.57,58.684,207.57,60.375z"/>
	<linearGradient id="SVGID_7_" gradientUnits="userSpaceOnUse" x1="247.0566" y1="32.0381" x2="233.9794" y2="67.9676">
		<stop  offset="0" style="stop-color:#494D59"/>
		<stop  offset="0.256" style="stop-color:#434955"/>
		<stop  offset="0.6069" style="stop-color:#313F4B"/>
		<stop  offset="0.7927" style="stop-color:#1D3340"/>
		<stop  offset="1" style="stop-color:#012330"/>
	</linearGradient>
	<path fill="url(#SVGID_7_)" stroke="#012330" stroke-miterlimit="10" d="M233.379,60.324c0,1.727-0.97,2.591-2.909,2.591
		c-1.005,0-1.745-0.122-2.221-0.37c-0.864-0.477-1.296-1.216-1.296-2.221c0-0.899,0.301-1.533,0.9-1.904l0.661-0.477
		c0.069-0.07,0.105-0.123,0.105-0.159c0-0.088-0.193-0.256-0.583-0.502c-0.723-0.44-1.084-1.138-1.084-2.089
		c0-1.006,0.486-1.763,1.454-2.275c0.142-0.158,0.213-0.256,0.213-0.291c-0.019-0.053-0.035-0.105-0.053-0.158l-0.768-0.529
		c-0.564-0.424-0.847-1.059-0.847-1.905c0-0.899,0.301-1.551,0.9-1.956l0.661-0.423c0.069-0.07,0.105-0.141,0.105-0.212
		c-0.019-0.088-0.055-0.159-0.109-0.212l-0.736-0.449c-0.547-0.405-0.821-1.041-0.821-1.904c0-0.987,0.31-1.667,0.929-2.037
		c0.492-0.3,0.737-0.485,0.737-0.555c0-0.035-0.018-0.07-0.053-0.106l-0.821-0.582c-0.528-0.405-0.793-1.04-0.793-1.905
		c0-0.758,0.282-1.38,0.846-1.863c0.564-0.484,1.288-0.728,2.17-0.728c0.952,0,1.657,0.123,2.115,0.371
		c0.864,0.476,1.295,1.198,1.295,2.168s-0.308,1.657-0.926,2.062l-0.582,0.37c-0.069,0.07-0.105,0.141-0.105,0.212
		c0.018,0.106,0.069,0.176,0.158,0.212l0.477,0.344c0.652,0.423,0.979,1.084,0.979,1.983c0,0.934-0.308,1.604-0.926,2.009
		l-0.634,0.449c-0.07,0.07-0.105,0.123-0.105,0.159c0.018,0.088,0.053,0.141,0.105,0.159l0.582,0.37
		c0.652,0.423,0.979,1.111,0.979,2.062c0,0.969-0.308,1.64-0.926,2.01l-0.634,0.369c-0.035,0.035-0.053,0.088-0.053,0.16
		c0,0.07,0.035,0.141,0.106,0.211l0.528,0.398c0.652,0.457,0.979,1.127,0.979,2.008c0,0.865-0.264,1.49-0.793,1.878l-0.82,0.608
		c-0.035,0.035-0.053,0.07-0.053,0.106c0,0.087,0.229,0.264,0.687,0.528C233.053,58.701,233.379,59.371,233.379,60.324z
		 M248.874,34.475c0,1.054-0.432,1.808-1.296,2.264c-0.404,0.227-1.146,0.341-2.221,0.341H235.6c-1.04,0-1.762-0.115-2.168-0.341
		c-0.864-0.456-1.295-1.194-1.295-2.211c0-1.718,1.031-2.578,3.093-2.578h11.213c0.617,0,1.177,0.259,1.68,0.776
		C248.623,33.245,248.874,33.827,248.874,34.475z M248.874,65.479c0,1.728-0.979,2.591-2.937,2.591h-8.805
		c-1.905,0-3.006-0.053-3.306-0.158c-1.128-0.405-1.692-1.197-1.692-2.379c0-1.041,0.448-1.781,1.348-2.222
		c0.37-0.177,1.022-0.265,1.957-0.265h10.55C247.913,63.047,248.874,63.857,248.874,65.479z M254.03,39.658
		c0,1.754-1.031,2.631-3.093,2.631c-0.953,0-1.623-0.108-2.01-0.322c-0.864-0.501-1.295-1.253-1.295-2.256
		c0-1.755,1.014-2.631,3.04-2.631h0.424C253.052,37.134,254.03,37.994,254.03,39.658z M254.03,60.375
		c0,1.252-0.617,2.062-1.851,2.434c-0.177,0.07-0.758,0.105-1.745,0.105c-0.812,0-1.481-0.229-2.01-0.688
		c-0.529-0.457-0.794-1.058-0.794-1.798c0-1.728,1.051-2.591,3.147-2.591C252.946,57.838,254.03,58.684,254.03,60.375z"/>
	<linearGradient id="SVGID_8_" gradientUnits="userSpaceOnUse" x1="280.1758" y1="34.5449" x2="267.005" y2="70.7313">
		<stop  offset="0" style="stop-color:#494D59"/>
		<stop  offset="0.256" style="stop-color:#434955"/>
		<stop  offset="0.6069" style="stop-color:#313F4B"/>
		<stop  offset="0.7927" style="stop-color:#1D3340"/>
		<stop  offset="1" style="stop-color:#012330"/>
	</linearGradient>
	<path fill="url(#SVGID_8_)" stroke="#012330" stroke-miterlimit="10" d="M285.312,65.586c0,1.762-1.013,2.645-3.038,2.645
		c-1.031,0-1.743-0.105-2.133-0.316c-0.872-0.494-1.307-1.252-1.307-2.275c0-0.846,0.409-1.569,1.229-2.168l0.219-0.159
		c0.146-0.054,0.217-0.142,0.217-0.265c0-0.105-0.146-0.237-0.438-0.396c-0.818-0.424-1.229-1.164-1.229-2.222
		c0-1.059,0.428-1.78,1.284-2.169c0.256-0.158,0.382-0.281,0.382-0.369c-0.018-0.088-0.053-0.159-0.105-0.213l-0.714-0.502
		c-0.564-0.389-0.847-0.996-0.847-1.824c0-0.793,0.217-1.393,0.648-1.799c0.432-0.405,0.646-0.633,0.646-0.686
		c0-0.16-0.069-0.238-0.212-0.238h-16.207c-0.315,0-0.476,0.078-0.476,0.238l0.104,0.211l0.414,0.37
		c0.502,0.441,0.752,1.058,0.752,1.852c0,0.987-0.374,1.692-1.12,2.115c-0.398,0.212-0.598,0.37-0.598,0.476l0.077,0.055
		l0.157,0.158l0.521,0.396c0.64,0.441,0.963,1.05,0.963,1.824c0,1.041-0.32,1.764-0.963,2.169c-0.451,0.3-0.678,0.503-0.678,0.608
		c0,0.088,0.109,0.176,0.322,0.264c0.878,0.37,1.317,1.111,1.317,2.222c0,1.093-0.452,1.868-1.354,2.327
		c-0.354,0.211-1.009,0.316-1.964,0.316c-0.868,0-1.486-0.105-1.858-0.316c-0.868-0.512-1.301-1.27-1.301-2.275
		c0-1.109,0.433-1.852,1.296-2.222c0.229-0.142,0.344-0.247,0.344-0.317c0-0.122-0.22-0.325-0.661-0.607
		c-0.652-0.404-0.979-1.093-0.979-2.062c0-0.969,0.361-1.674,1.084-2.115c0.405-0.229,0.608-0.389,0.608-0.477
		c0-0.053-0.282-0.272-0.847-0.66c-0.563-0.389-0.846-1.031-0.846-1.931c0-1.146,0.433-1.905,1.296-2.274
		c0.229-0.105,0.344-0.221,0.344-0.344c0-0.088-0.035-0.142-0.106-0.16l-0.661-0.422c-0.582-0.389-0.872-1.059-0.872-2.01
		c0-0.617,0.229-1.19,0.688-1.718c0.458-0.528,0.97-0.802,1.533-0.82c0.828-0.018,1.243-0.106,1.243-0.264
		c-0.105-0.194-0.335-0.449-0.688-0.768c-0.404-0.335-0.608-0.899-0.608-1.692c0-1.005,0.434-1.745,1.296-2.221
		c0.405-0.212,1.093-0.317,2.062-0.317c2.097,0,3.146,0.846,3.146,2.539c0,0.724-0.237,1.323-0.714,1.799l-0.477,0.476
		c-0.069,0.07-0.106,0.132-0.106,0.185c0,0.141,0.213,0.212,0.635,0.212h11.054c0.546,0,0.819-0.097,0.819-0.291
		c0-0.088-0.105-0.212-0.316-0.37c-0.618-0.441-0.926-1.093-0.926-1.956c0-1.728,1.031-2.592,3.094-2.592
		c2.274,0,3.41,0.828,3.41,2.485c0,0.935-0.308,1.623-0.924,2.062c-0.229,0.159-0.345,0.308-0.345,0.449s0.335,0.229,1.006,0.264
		c0.67,0.035,1.238,0.305,1.705,0.807c0.467,0.502,0.701,1.08,0.701,1.731c0,0.934-0.301,1.604-0.899,2.01l-0.661,0.422
		c-0.07,0.07-0.106,0.123-0.106,0.16c0,0.105,0.07,0.202,0.212,0.291l0.556,0.369c0.599,0.424,0.899,1.075,0.899,1.957
		c0,0.881-0.282,1.541-0.847,1.982c-0.546,0.353-0.82,0.556-0.82,0.609c0,0.069,0.257,0.291,0.768,0.66
		c0.599,0.352,0.899,1.014,0.899,1.984c0,0.898-0.278,1.547-0.833,1.943c-0.556,0.396-0.833,0.621-0.833,0.674
		c0,0.054,0.194,0.195,0.583,0.424C284.95,63.928,285.312,64.615,285.312,65.586z M270.821,39.54c0,1.798-1.084,2.697-3.253,2.697
		s-3.253-0.864-3.253-2.591c0-1.781,1.014-2.67,3.041-2.67c1.022,0,1.78,0.15,2.274,0.449
		C270.425,37.882,270.821,38.587,270.821,39.54z M274.894,34.33c0,1.762-1.026,2.645-3.08,2.645c-1.036,0-1.765-0.141-2.187-0.423
		c-0.809-0.546-1.212-1.251-1.212-2.115c0-1.763,1.027-2.645,3.082-2.645C273.761,31.791,274.894,32.637,274.894,34.33z
		 M279.045,39.593c0,1.093-0.449,1.868-1.349,2.327c-0.44,0.212-1.11,0.316-2.01,0.316c-0.775,0-1.357-0.105-1.745-0.316
		c-0.934-0.53-1.401-1.27-1.401-2.222c0-1.128,0.45-1.905,1.349-2.327c0.352-0.229,1.04-0.344,2.062-0.344
		C278.014,37.027,279.045,37.882,279.045,39.593z"/>
	<linearGradient id="SVGID_9_" gradientUnits="userSpaceOnUse" x1="311.626" y1="32.0332" x2="297.9027" y2="69.7375">
		<stop  offset="0" style="stop-color:#494D59"/>
		<stop  offset="0.256" style="stop-color:#434955"/>
		<stop  offset="0.6069" style="stop-color:#313F4B"/>
		<stop  offset="0.7927" style="stop-color:#1D3340"/>
		<stop  offset="1" style="stop-color:#012330"/>
	</linearGradient>
	<path fill="url(#SVGID_9_)" stroke="#012330" stroke-miterlimit="10" d="M313.5,34.475c0,0.736-0.257,1.355-0.769,1.856
		c-0.511,0.501-1.146,0.749-1.903,0.749H297.58c-0.546,0-0.82,0.07-0.82,0.212s0.086,0.282,0.259,0.423
		c0.638,0.601,0.957,1.237,0.957,1.906c0,1.023-0.354,1.746-1.066,2.17c-0.399,0.229-0.598,0.388-0.598,0.477
		c0.035,0.141,0.08,0.212,0.134,0.212l0.644,0.502c0.592,0.424,0.887,1.051,0.887,1.879c0,0.9-0.295,1.553-0.886,1.958l-0.777,0.556
		c0,0.018-0.005,0.03-0.015,0.04c-0.01,0.009-0.023,0.03-0.04,0.066c0,0.088,0.241,0.282,0.726,0.583
		c0.662,0.423,0.993,1.095,0.993,2.011c0,1.007-0.349,1.712-1.048,2.118c-0.412,0.229-0.617,0.388-0.617,0.476
		c0,0.122,0.169,0.272,0.511,0.448c0.769,0.391,1.153,1.112,1.153,2.172c0,0.935-0.492,1.719-1.478,2.355
		c-0.125,0.07-0.188,0.15-0.188,0.238s0.26,0.308,0.778,0.66c0.592,0.391,0.887,1.033,0.887,1.934c0,1.023-0.438,1.764-1.315,2.223
		c-0.286,0.142-0.438,0.257-0.455,0.345c0,0.123,0.062,0.212,0.188,0.265l0.536,0.371c0.698,0.476,1.047,1.129,1.047,1.957
		c0,1.694-1,2.541-2.999,2.541c-0.974,0-1.62-0.07-1.938-0.213c-1.027-0.441-1.54-1.233-1.54-2.379s0.433-1.887,1.295-2.222
		c0.229-0.089,0.344-0.194,0.344-0.317c0-0.122-0.238-0.326-0.714-0.607c-0.617-0.371-0.925-1.04-0.925-2.01
		c0-0.916,0.308-1.586,0.925-2.01c0.476-0.246,0.714-0.422,0.714-0.529c0-0.105-0.018-0.176-0.053-0.211l-0.767-0.502
		c-0.547-0.336-0.82-0.962-0.82-1.878c0-0.97,0.344-1.675,1.031-2.115l0.555-0.265c0.07-0.088,0.106-0.166,0.106-0.237
		c0-0.089-0.167-0.212-0.502-0.37c-0.794-0.494-1.19-1.234-1.19-2.221c0-0.97,0.379-1.675,1.138-2.116
		c0.37-0.247,0.555-0.405,0.555-0.477c0-0.071-0.097-0.159-0.292-0.264c-0.933-0.441-1.4-1.225-1.4-2.354
		c0-1.04,0.396-1.754,1.19-2.141c0.335-0.176,0.502-0.326,0.502-0.449c0-0.088-0.185-0.229-0.555-0.423
		c-0.759-0.405-1.138-1.111-1.138-2.115c0-0.987,0.326-1.675,0.978-2.063c0.441-0.264,0.661-0.441,0.661-0.529
		c0-0.123-0.034-0.22-0.105-0.291l-0.661-0.423c-0.582-0.388-0.872-1.022-0.872-1.904c0-1.146,0.468-1.921,1.4-2.327
		c0.424-0.176,1.474-0.264,3.146-0.264h14.888c0.705,0,1.309,0.25,1.811,0.75C313.249,33.2,313.5,33.792,313.5,34.475z
		 M313.5,50.037c0,1.762-0.997,2.645-2.988,2.645h-3.252c-0.142,0-0.213,0.078-0.213,0.238c0,0.105,0.123,0.246,0.37,0.422
		c0.583,0.389,0.873,1.022,0.873,1.905c0,1.763-0.998,2.644-2.988,2.644c-1.04,0-1.78-0.123-2.222-0.369
		c-0.828-0.494-1.243-1.234-1.243-2.222c0-0.687,0.22-1.251,0.66-1.692l0.583-0.477c0.018-0.035,0.03-0.066,0.04-0.092
		c0.009-0.025,0.021-0.049,0.038-0.066c0-0.194-0.078-0.291-0.237-0.291h-1.19c-0.617,0-1.177-0.26-1.679-0.779
		c-0.502-0.521-0.754-1.106-0.754-1.759c0-0.724,0.243-1.327,0.729-1.811c0.484-0.484,1.089-0.728,1.811-0.728h8.674
		c0.935,0,1.622,0.176,2.062,0.529C313.191,48.645,313.5,49.279,313.5,50.037z M313.5,60.429c0,1.022-0.434,1.78-1.296,2.274
		c-0.388,0.229-1.022,0.344-1.905,0.344c-0.863,0-1.479-0.096-1.851-0.291c-0.935-0.457-1.401-1.197-1.401-2.221
		s0.449-1.781,1.349-2.275c0.405-0.211,1.022-0.316,1.851-0.316c0.935,0,1.604,0.105,2.01,0.316
		C313.086,58.72,313.5,59.441,313.5,60.429z M318.683,44.881c0,0.793-0.282,1.436-0.846,1.93c-0.564,0.494-1.288,0.741-2.169,0.741
		c-2.275,0-3.411-0.891-3.411-2.671c0-0.881,0.282-1.507,0.847-1.877l0.607-0.397c0.106-0.088,0.159-0.175,0.159-0.264v-0.106
		l-0.105-0.105l-0.608-0.37c-0.6-0.388-0.899-1.005-0.899-1.852c0-1.798,1.059-2.697,3.173-2.697c2.169,0,3.253,0.846,3.253,2.539
		c0,0.881-0.326,1.551-0.979,2.009l-0.528,0.371c-0.089,0.053-0.142,0.123-0.16,0.212c0,0.123,0.16,0.272,0.476,0.449
		C318.286,43.18,318.683,43.875,318.683,44.881z M318.63,65.561c0,1.744-1.022,2.615-3.068,2.615c-2.203,0-3.306-0.837-3.306-2.512
		c0-1.711,0.987-2.564,2.962-2.564C317.493,63.1,318.63,63.92,318.63,65.561z"/>
	<linearGradient id="SVGID_10_" gradientUnits="userSpaceOnUse" x1="338.1582" y1="28.7451" x2="325.0425" y2="64.7801">
		<stop  offset="0" style="stop-color:#494D59"/>
		<stop  offset="0.256" style="stop-color:#434955"/>
		<stop  offset="0.6069" style="stop-color:#313F4B"/>
		<stop  offset="0.7927" style="stop-color:#1D3340"/>
		<stop  offset="1" style="stop-color:#012330"/>
	</linearGradient>
	<path fill="url(#SVGID_10_)" stroke="#012330" stroke-miterlimit="10" d="M349.118,34.475c0,1.736-1.013,2.605-3.041,2.605h-7.298
		c-0.828,0-1.243,0.088-1.243,0.264c0,0.036,0.018,0.07,0.054,0.106l0.648,0.635c0.378,0.37,0.567,0.936,0.567,1.693
		c0,1.077-0.441,1.817-1.316,2.224c-0.234,0.106-0.351,0.212-0.351,0.317c0,0.104,0.019,0.176,0.054,0.212l0.672,0.449
		c0.627,0.406,0.941,1.058,0.941,1.958c0,1.077-0.439,1.809-1.315,2.197c-0.27,0.159-0.403,0.291-0.403,0.397
		s0.134,0.212,0.403,0.317c0.876,0.39,1.315,1.147,1.315,2.277c0,0.988-0.476,1.748-1.425,2.277
		c-0.197,0.105-0.295,0.211-0.295,0.316c0,0.088,0.116,0.186,0.349,0.291c0.915,0.406,1.371,1.183,1.371,2.328
		c0,1.077-0.387,1.802-1.155,2.172c-0.375,0.158-0.563,0.281-0.563,0.369c0,0.123,0.147,0.248,0.442,0.371
		c0.852,0.424,1.277,1.164,1.277,2.223c0,0.936-0.32,1.605-0.964,2.012c-0.469,0.301-0.703,0.502-0.703,0.608
		c0,0.089,0.13,0.194,0.39,0.317c0.852,0.404,1.277,1.146,1.277,2.224c0,1.729-1.055,2.593-3.161,2.593
		c-0.938,0-1.627-0.122-2.071-0.369c-0.831-0.494-1.246-1.217-1.246-2.171c0-0.987,0.336-1.675,1.009-2.063l0.574-0.318
		c0.108-0.07,0.163-0.123,0.163-0.158c0-0.142-0.055-0.238-0.163-0.291l-0.629-0.371c-0.635-0.389-0.954-1.059-0.954-2.012
		c0-0.969,0.372-1.676,1.118-2.117c0.417-0.229,0.627-0.369,0.627-0.424c-0.018-0.087-0.055-0.158-0.109-0.211l-0.791-0.504
		c-0.562-0.334-0.845-0.961-0.845-1.879c0-0.951,0.318-1.621,0.954-2.012l0.629-0.369c0.091-0.053,0.146-0.133,0.163-0.238
		c0-0.07-0.273-0.282-0.819-0.635c-0.617-0.405-0.926-1.075-0.926-2.011c0-1.058,0.484-1.817,1.454-2.277
		c0.194-0.123,0.291-0.212,0.291-0.264c-0.018-0.106-0.069-0.176-0.158-0.212l-0.503-0.292c-0.723-0.389-1.084-1.085-1.084-2.092
		c0-0.969,0.344-1.658,1.031-2.064c0.44-0.264,0.661-0.45,0.661-0.555c0-0.106-0.035-0.159-0.105-0.159l-0.556-0.37
		c-0.688-0.494-1.031-1.164-1.031-2.012c0-0.846,0.326-1.534,0.979-2.064c0.212-0.122,0.317-0.248,0.317-0.37
		c0-0.176-0.361-0.264-1.085-0.264h-7.854c-0.776,0-1.429-0.241-1.956-0.724c-0.528-0.481-0.793-1.091-0.793-1.828
		c0-0.753,0.269-1.372,0.807-1.854c0.538-0.483,1.229-0.725,2.075-0.725h21.26c0.74,0,1.305,0.106,1.692,0.314
		C348.669,32.775,349.118,33.512,349.118,34.475z"/>
	<linearGradient id="SVGID_11_" gradientUnits="userSpaceOnUse" x1="374.6807" y1="30.2505" x2="360.2846" y2="69.8034">
		<stop  offset="0" style="stop-color:#494D59"/>
		<stop  offset="0.256" style="stop-color:#434955"/>
		<stop  offset="0.6069" style="stop-color:#313F4B"/>
		<stop  offset="0.7927" style="stop-color:#1D3340"/>
		<stop  offset="1" style="stop-color:#012330"/>
	</linearGradient>
	<path fill="url(#SVGID_11_)" stroke="#012330" stroke-miterlimit="10" d="M381.113,65.636c0,1.729-1.006,2.595-3.015,2.595
		c-1.059,0-1.763-0.105-2.115-0.316c-0.898-0.547-1.349-1.305-1.349-2.275c0-1.094,0.485-1.852,1.455-2.274
		c0.141-0.106,0.211-0.194,0.211-0.265c0-0.088-0.276-0.338-0.832-0.753c-0.555-0.414-0.833-1.054-0.833-1.917
		c0-1.005,0.415-1.727,1.244-2.168c0.282-0.142,0.424-0.264,0.424-0.371c0-0.053-0.02-0.105-0.055-0.158l-0.582-0.396
		c-0.688-0.424-1.031-1.12-1.031-2.09c0-0.758,0.229-1.341,0.688-1.746c0.371-0.316,0.555-0.529,0.555-0.633
		c0-0.16-0.203-0.238-0.607-0.238h-15.31c-0.583,0-0.873,0.078-0.873,0.238c0,0.105,0.104,0.229,0.311,0.369
		c0.604,0.547,0.906,1.217,0.906,2.01c0,0.969-0.355,1.666-1.068,2.09l-0.52,0.344c-0.052,0-0.077,0.053-0.077,0.158
		c0,0.123,0.182,0.282,0.545,0.477c0.746,0.423,1.12,1.11,1.12,2.062c0,0.986-0.339,1.691-1.014,2.115
		c-0.417,0.264-0.635,0.423-0.651,0.477c0,0.141,0.224,0.344,0.672,0.607c0.662,0.389,0.994,1.059,0.994,2.01
		c0,1.762-1.142,2.645-3.426,2.645c-2.035,0-3.053-0.864-3.053-2.592c0-1.006,0.345-1.692,1.031-2.062l0.555-0.369
		c0.054-0.019,0.089-0.054,0.106-0.107c0-0.034-0.018-0.078-0.053-0.131l-0.872-0.688c-0.511-0.404-0.768-1.006-0.768-1.799
		c0-1.109,0.414-1.868,1.244-2.273c0.299-0.123,0.448-0.248,0.448-0.371c-0.018-0.053-0.053-0.105-0.106-0.158l-0.767-0.502
		c-0.546-0.336-0.82-0.979-0.82-1.931c0-0.97,0.326-1.657,0.979-2.062l0.607-0.397c0.071,0,0.106-0.053,0.106-0.158
		c-0.018-0.088-0.053-0.16-0.106-0.213l-0.607-0.316c-0.652-0.353-0.979-1.041-0.979-2.063c0-0.969,0.361-1.674,1.085-2.115
		c0.404-0.247,0.607-0.405,0.607-0.476c0-0.088-0.203-0.256-0.607-0.502c-0.724-0.441-1.085-1.146-1.085-2.115
		c0-1.041,0.361-1.737,1.085-2.09c0.404-0.264,0.607-0.432,0.607-0.502c0-0.123-0.132-0.247-0.396-0.37
		c-0.864-0.335-1.296-1.093-1.296-2.274c0-0.935,0.345-1.623,1.031-2.062l0.608-0.37c0.035-0.018,0.053-0.062,0.053-0.132
		c0-0.123-0.22-0.3-0.661-0.529c-0.687-0.37-1.031-1.058-1.031-2.062c0-1.762,1.167-2.645,3.502-2.645
		c1.984,0,2.977,0.881,2.977,2.645c0,0.969-0.479,1.745-1.433,2.326c-0.19,0.106-0.286,0.195-0.286,0.265l0.052,0.079l0.756,0.529
		c0.606,0.441,0.911,1.11,0.911,2.009c0,1.04-0.426,1.78-1.276,2.222c-0.259,0.123-0.39,0.247-0.39,0.37
		c0.018,0.088,0.061,0.159,0.129,0.212l0.468,0.292c0.713,0.388,1.068,1.084,1.068,2.09c0,0.811-0.234,1.41-0.699,1.798
		c-0.346,0.3-0.518,0.502-0.518,0.608c0,0.176,0.326,0.264,0.979,0.264h14.993c0.546,0,0.819-0.087,0.819-0.265
		c0-0.088-0.166-0.273-0.501-0.557c-0.495-0.442-0.741-1.061-0.741-1.857c0-0.884,0.326-1.548,0.979-1.99l0.529-0.398
		c0.105-0.054,0.158-0.107,0.158-0.161c0-0.141-0.018-0.212-0.055-0.212l-0.655-0.425c-0.636-0.424-0.956-1.114-0.956-2.069
		c0-0.938,0.373-1.627,1.119-2.07c0.398-0.248,0.601-0.416,0.601-0.504c0-0.105-0.183-0.248-0.546-0.424
		c-0.782-0.354-1.174-1.061-1.174-2.124c0-1.768,0.995-2.653,2.986-2.653c1.049,0,1.795,0.123,2.238,0.37
		c0.836,0.477,1.253,1.218,1.253,2.225c0,1.042-0.379,1.749-1.137,2.119c-0.353,0.229-0.53,0.389-0.53,0.477
		c0,0.053,0.089,0.167,0.265,0.344c0.935,0.565,1.401,1.325,1.401,2.278c0,0.917-0.282,1.572-0.846,1.96l-0.821,0.53v0.106
		c0,0.123,0.088,0.229,0.265,0.317c0.935,0.478,1.401,1.254,1.401,2.33c0,1.078-0.467,1.837-1.401,2.278
		c-0.194,0.106-0.3,0.203-0.317,0.292c0,0.088,0.257,0.282,0.768,0.582c0.634,0.407,0.952,1.078,0.952,2.013
		c0,0.935-0.317,1.623-0.952,2.065c-0.511,0.265-0.768,0.46-0.768,0.583c0,0.089,0.213,0.257,0.635,0.502
		c0.723,0.391,1.084,1.096,1.084,2.119c0,0.918-0.361,1.598-1.084,2.04l-0.423,0.292c-0.106,0.105-0.16,0.193-0.16,0.264
		c0.019,0.089,0.054,0.158,0.107,0.212l0.423,0.212c0.758,0.388,1.137,1.111,1.137,2.172c0,1.059-0.432,1.801-1.296,2.225
		c-0.246,0.123-0.37,0.256-0.37,0.397c0,0.106,0.142,0.229,0.423,0.371C380.699,63.852,381.113,64.575,381.113,65.636z"/>
	<linearGradient id="SVGID_12_" gradientUnits="userSpaceOnUse" x1="407.2568" y1="29.9551" x2="393.5522" y2="67.6084">
		<stop  offset="0" style="stop-color:#494D59"/>
		<stop  offset="0.256" style="stop-color:#434955"/>
		<stop  offset="0.6069" style="stop-color:#313F4B"/>
		<stop  offset="0.7927" style="stop-color:#1D3340"/>
		<stop  offset="1" style="stop-color:#012330"/>
	</linearGradient>
	<path fill="url(#SVGID_12_)" stroke="#012330" stroke-miterlimit="10" d="M393.832,44.766c0,1.062-0.435,1.822-1.306,2.281
		c-0.408,0.23-1.119,0.345-2.134,0.345c-2.044,0-3.065-0.857-3.065-2.574c0-1.06,0.473-1.82,1.42-2.281
		c0.182-0.088,0.272-0.194,0.272-0.318c-0.018-0.106-0.088-0.194-0.211-0.265c-0.987-0.635-1.481-1.433-1.481-2.387
		c0-0.973,0.361-1.663,1.085-2.069c0.405-0.23,0.607-0.399,0.607-0.505c0-0.07-0.132-0.176-0.396-0.318
		c-0.864-0.459-1.296-1.203-1.296-2.229c0-1.768,0.979-2.653,2.936-2.653c1.059,0,1.78,0.106,2.17,0.318
		c0.898,0.513,1.347,1.273,1.347,2.281c0,1.043-0.379,1.751-1.137,2.123c-0.37,0.248-0.556,0.406-0.556,0.477
		c0.035,0.106,0.08,0.168,0.133,0.185l0.476,0.319c0.758,0.406,1.137,1.113,1.137,2.122c0,1.043-0.467,1.805-1.399,2.281
		c-0.177,0.088-0.265,0.177-0.265,0.265c0,0.124,0.141,0.266,0.423,0.424C393.418,43.051,393.832,43.776,393.832,44.766z
		 M393.938,60.324c0,0.986-0.45,1.744-1.349,2.274c-0.44,0.247-1.128,0.37-2.062,0.37c-2.062,0-3.094-0.847-3.094-2.539
		c0-1.021,0.441-1.779,1.322-2.273c0.37-0.213,1.031-0.318,1.984-0.318C392.872,57.838,393.938,58.666,393.938,60.324z
		 M414.563,60.217c0,1.764-1.137,2.646-3.41,2.646c-1.975,0-2.961-0.86-2.961-2.578c0-1.034,0.396-1.754,1.189-2.157
		c0.282-0.139,0.423-0.262,0.423-0.367c0-0.07-0.035-0.141-0.105-0.211l-0.476-0.291c-0.725-0.385-1.085-1.104-1.085-2.156
		c0-0.789,0.37-1.49,1.11-2.104c0.088-0.069,0.132-0.158,0.132-0.263c-0.018-0.018-0.031-0.039-0.04-0.065
		c-0.009-0.027-0.013-0.058-0.013-0.094h-0.106h-0.607h-13.434c-0.705,0-1.312-0.265-1.824-0.793
		c-0.511-0.529-0.767-1.146-0.767-1.852c0-0.687,0.242-1.292,0.727-1.811c0.486-0.519,1.036-0.78,1.654-0.78h14.146
		c0.142,0,0.212-0.079,0.212-0.238c0-0.123-0.118-0.247-0.358-0.37c-0.624-0.477-0.937-1.146-0.937-2.01
		c0-1.005,0.371-1.692,1.117-2.062c0.4-0.194,0.601-0.37,0.601-0.529c0-0.053-0.036-0.106-0.109-0.159l-0.736-0.502
		c-0.582-0.388-0.872-1.031-0.872-1.93c0-1.022,0.392-1.728,1.173-2.116c0.363-0.194,0.545-0.344,0.545-0.449
		c-0.018-0.088-0.053-0.141-0.105-0.159l-0.477-0.317c-0.759-0.511-1.138-1.216-1.138-2.115c0-1.727,1.041-2.591,3.121-2.591
		c1.04,0,1.762,0.141,2.168,0.423c0.759,0.529,1.138,1.234,1.138,2.115c0,1.04-0.414,1.799-1.243,2.275
		c-0.248,0.088-0.37,0.194-0.37,0.317c0,0.141,0.109,0.273,0.327,0.397c0.928,0.494,1.391,1.251,1.391,2.274
		c0,0.969-0.391,1.674-1.174,2.116c-0.362,0.194-0.544,0.335-0.544,0.423c0,0.141,0.091,0.229,0.273,0.264
		c0.963,0.476,1.444,1.251,1.444,2.326c0,1.005-0.428,1.745-1.283,2.222c-0.255,0.159-0.383,0.291-0.383,0.397
		c0,0.087,0.069,0.176,0.212,0.264c0.97,0.599,1.454,1.375,1.454,2.327c0,0.828-0.36,1.515-1.084,2.062l-0.423,0.316
		c-0.106,0.054-0.159,0.107-0.159,0.16c0,0.07,0.035,0.141,0.105,0.212l0.768,0.555c0.529,0.388,0.793,1.022,0.793,1.904
		c0,0.935-0.282,1.561-0.846,1.878l-0.768,0.555c-0.018,0.019-0.035,0.053-0.053,0.105c0,0.107,0.159,0.229,0.477,0.371
		C414.167,58.385,414.563,59.106,414.563,60.217z M409.434,65.427c0,0.724-0.251,1.344-0.754,1.864
		c-0.502,0.52-1.114,0.779-1.838,0.779h-11.449c-0.775,0-1.428-0.242-1.956-0.728c-0.527-0.485-0.793-1.089-0.793-1.812
		c0-0.67,0.256-1.251,0.767-1.745c0.512-0.494,1.104-0.739,1.772-0.739l12.031-0.08c0.563-0.035,1.075,0.203,1.533,0.715
		C409.204,64.193,409.434,64.774,409.434,65.427z"/>
</g>
</svg>
