<?xml version="1.0" encoding="utf-8"?>
<!-- Generator: Adobe Illustrator 16.0.0, SVG Export Plug-In . SVG Version: 6.00 Build 0)  -->
<!DOCTYPE svg PUBLIC "-//W3C//DTD SVG 1.1//EN" "http://www.w3.org/Graphics/SVG/1.1/DTD/svg11.dtd">
<svg version="1.1" id="Layer_1" xmlns="http://www.w3.org/2000/svg" xmlns:xlink="http://www.w3.org/1999/xlink" x="0px" y="0px"
	 width="650px" height="450px" viewBox="0 0 650 450" enable-background="new 0 0 650 450" xml:space="preserve">
<g id="hole">
	<g>
		<linearGradient id="SVGID_1_" gradientUnits="userSpaceOnUse" x1="374.335" y1="95.1309" x2="278.4336" y2="358.6178">
			<stop  offset="0" style="stop-color:#494D59"/>
			<stop  offset="0.256" style="stop-color:#434955"/>
			<stop  offset="0.6069" style="stop-color:#313F4B"/>
			<stop  offset="0.7927" style="stop-color:#1D3340"/>
			<stop  offset="1" style="stop-color:#012330"/>
		</linearGradient>
		<path fill="url(#SVGID_1_)" d="M434.295,117.355l24.607,14.209c9.229,5.329,9.229,13.959,0,19.289l-64.094,37.003l154.24,89.053
			c0.137,0.077,0.291,0.168,0.418,0.254l90.051,51.99c9.229,5.331,9.229,13.963,0,19.291l-21.396,12.354
			c-9.215,5.315-24.182,5.33-33.406-0.001L510.938,318.2l-36.545,21.1l73.775,42.597c9.23,5.33,9.23,13.962,0.006,19.292
			l-21.396,12.352c-9.229,5.33-24.182,5.33-33.412,0l-244.72-141.291l-66.892,38.612c-9.215,5.322-24.181,5.331-33.408,0.007
			l-24.612-14.209c-9.218-5.32-9.214-13.975,0-19.291l66.892-38.617l-7.477-4.316c-9.216-5.321-9.229-13.961,0-19.29l32.17-18.574
			c-53.567,18.47-123.979,14.389-170.11-12.247c-54.486-31.458-54.47-82.454,0.003-113.904
			c54.487-31.457,142.814-31.465,197.3-0.009c46.131,26.635,53.2,67.287,21.212,98.214l32.185-18.583
			c9.23-5.328,24.195-5.32,33.41,0l7.479,4.316l64.092-37.003C410.115,112.026,425.078,112.036,434.295,117.355z"/>
	</g>
	<line fill="none" stroke="#012330" x1="264.452" y1="282.271" x2="264.452" y2="168.625"/>
	<line fill="none" stroke="#012330" x1="394.656" y1="357.086" x2="394.656" y2="187.646"/>
	<line fill="none" stroke="#012330" x1="336.785" y1="323.062" x2="336.785" y2="153.623"/>
	<line fill="none" stroke="#012330" x1="473.955" y1="402.331" x2="473.955" y2="339.286"/>
	<line fill="none" stroke="#012330" x1="214.622" y1="292.318" x2="214.622" y2="197.552"/>
	<line fill="none" stroke="#012330" x1="190.508" y1="305.812" x2="190.508" y2="238.341"/>
	<g>
		<line fill="none" stroke="#012330" x1="190.049" y1="271.298" x2="215.318" y2="256.708"/>
	</g>
	<g>
		<line fill="none" stroke="#231F20" x1="163.052" y1="314.809" x2="190.625" y2="298.89"/>
	</g>
	<g>
		<line fill="none" stroke="#231F20" x1="474.395" y1="399.439" x2="505.229" y2="417.242"/>
	</g>
	<g>
		<path fill="none" stroke="#012330" d="M394.812,247.995l154.24,89.053c0.139,0.08,0.291,0.173,0.418,0.259l47.102,27.19"/>
	</g>
	<g>
		<path fill="none" stroke="#012330" d="M263.723,228.765l32.186-18.583c9.229-5.328,24.193-5.32,33.408,0l7.477,4.317
			l64.096-37.003c5.271-3.046,12.42-4.348,19.297-3.911"/>
	</g>
	<g>
		<path fill="none" stroke="#012330" d="M14.397,157.444c6.811-9.786,17.082-18.958,30.814-26.886
			c54.487-31.457,142.814-31.466,197.3-0.009c14.377,8.3,24.022,16.581,30.811,26.885"/>
	</g>
	<path fill="none" stroke="#231F20" d="M419.586,173.555"/>
	<path fill="none" stroke="#231F20" d="M419.586,173.555"/>
	<path fill="none" stroke="#231F20" d="M419.586,173.555"/>
	<path fill="none" stroke="#231F20" d="M273.321,157.435"/>
</g>
<path id="outline1" fill="none" stroke="#012330" d="M434.295,117.355l24.607,14.209c9.229,5.329,9.229,13.959,0,19.289
	l-64.094,37.003l154.24,89.053c0.137,0.077,0.291,0.168,0.418,0.254l90.051,51.99c9.229,5.331,9.229,13.963,0,19.291l-21.396,12.354
	c-9.215,5.315-24.182,5.33-33.406-0.001L510.938,318.2l-36.545,21.1l73.775,42.597c9.23,5.33,9.23,13.962,0.006,19.292
	l-21.396,12.352c-9.229,5.33-24.182,5.33-33.412,0l-244.72-141.291l-66.892,38.612c-9.215,5.322-24.181,5.331-33.408,0.007
	l-24.612-14.209c-9.218-5.32-9.214-13.975,0-19.291l66.892-38.617l-7.477-4.316c-9.216-5.321-9.229-13.961,0-19.29l32.17-18.574
	c-53.567,18.47-123.979,14.389-170.11-12.247c-54.486-31.458-54.47-82.454,0.003-113.904c54.487-31.457,142.814-31.465,197.3-0.009
	c46.131,26.635,53.2,67.287,21.212,98.214l32.185-18.583c9.23-5.328,24.195-5.32,33.41,0l7.479,4.316l64.092-37.003
	C410.115,112.026,425.078,112.036,434.295,117.355z"/>
<path id="outline2" fill="none" stroke="#012330" d="M434.295,117.355l24.607,14.209c9.229,5.329,9.229,13.959,0,19.289
	l-64.094,37.003l154.24,89.053c0.137,0.077,0.291,0.168,0.418,0.254l90.051,51.99c9.229,5.331,9.229,13.963,0,19.291l-21.396,12.354
	c-9.215,5.315-24.182,5.33-33.406-0.001L510.938,318.2l-36.545,21.1l73.775,42.597c9.23,5.33,9.23,13.962,0.006,19.292
	l-21.396,12.352c-9.229,5.33-24.182,5.33-33.412,0l-244.72-141.291l-66.892,38.612c-9.215,5.322-24.181,5.331-33.408,0.007
	l-24.612-14.209c-9.218-5.32-9.214-13.975,0-19.291l66.892-38.617l-7.477-4.316c-9.216-5.321-9.229-13.961,0-19.29l32.17-18.574
	c-53.567,18.47-123.979,14.389-170.11-12.247c-54.486-31.458-54.47-82.454,0.003-113.904c54.487-31.457,142.814-31.465,197.3-0.009
	c46.131,26.635,53.2,67.287,21.212,98.214l32.185-18.583c9.23-5.328,24.195-5.32,33.41,0l7.479,4.316l64.092-37.003
	C410.115,112.026,425.078,112.036,434.295,117.355z"/>
<g id="inners">
	<g id="heart">
		<path fill="#FACBCB" stroke="#FACBCB" d="M345.506,99.599v0.387c-0.193,19.964-21.332,43.53-33.855,61.212
			c-0.016,0-0.016,0-0.033,0l-0.145-0.049c-6.252-1.575-14.562-2.186-21.377-4.822c-6.864-2.652-12.201-7.378-12.298-17.248
			c-0.18-18.518,11.361-34.913,21.427-34.593c3.357-1.382,6.766-1.012,9.662,1.721c1.604,0.61,3.713,2.186,5.014,4.179
			c8.584-28.581,26.972-35.011,30.863-18.084c0.033,0.113,0.061,0.242,0.082,0.371c0.08,0.305,0.145,0.626,0.188,0.948
			c0.033,0.096,0.055,0.209,0.055,0.305c0.047,0.258,0.076,0.515,0.107,0.771c0.031,0.048,0.031,0.097,0.02,0.146
			c0.08,0.562,0.145,1.141,0.178,1.752c0.031,0.306,0.047,0.627,0.061,0.948C345.506,98.202,345.506,98.893,345.506,99.599z"/>
		<g>
			<path fill="none" stroke="#DCA1B2" d="M298.5,158.843"/>
			<path fill="none" stroke="#DCA1B2" d="M313.641,110.561c9.701-32.248,31.867-36.305,31.605-10.399
				c-0.193,19.963-21.322,43.532-33.851,61.213l0,0c-12.531-3.214-33.657-2.389-33.855-22.124
				c-0.156-16.072,8.512-30.539,17.39-33.885"/>
			<path fill="none" stroke="#DCA1B2" d="M317.198,151.272h-0.977c-10.023-2.572-26.924-1.911-27.083-17.699
				c-0.195-19.371,15.645-35.828,23.932-23.335"/>
			<path fill="none" stroke="#DCA1B2" d="M316.969,114.497c7.06-29.305,26.548-33.914,26.333-12.193
				c-0.146,14.491-14.072,31.359-24.144,44.928"/>
			<path fill="none" stroke="#DCA1B2" d="M320.008,145.315l-1.398-0.305c-7.801-2.001-20.949-1.487-21.074-13.77
				c-0.172-17.339,16.168-31.679,21.07-12.165l0,0c4.906-25.176,21.246-29.705,21.072-12.165
				c-0.107,10.842-9.598,24.332-17.328,34.668"/>
			<path fill="none" stroke="#DCA1B2" d="M314.299,155.741L314.299,155.741c-11.455-2.938-30.774-2.185-30.955-20.229
				c-0.206-20.623,15.486-38.357,25.298-29.149"/>
			<path fill="none" stroke="#DCA1B2" d="M315.522,112.23c8.357-32.167,29.97-36.913,29.728-12.459
				c-0.17,17.206-17.348,37.343-28.908,53.139"/>
			<path fill="none" stroke="#DCA1B2" d="M329.426,85.524c8.418-6.136,16.479-1.689,16.33,13.74
				c-0.189,19.319-20.643,42.13-32.763,59.243l0,0c-12.127-3.111-32.572-2.312-32.766-21.411
				c-0.144-14.137,6.778-26.993,14.491-31.648c3.307-1.997,6.758-2.486,9.861-0.923"/>
			<path fill="none" stroke="#DCA1B2" stroke-miterlimit="10" d="M318.729,118.831c2.883,3.465,4.926,8.03,4.926,12.473
				c0,2.815-0.73,6.053-1.846,9.339c-3.43,10.141-10.439,20.732-10.439,20.732"/>
		</g>
	</g>
	<g id="brain">
		<path fill="#FACBCB" stroke="#DCA1B2" d="M142.545,63.792c22.969,13.26,27.956,31.872,11.143,41.578
			c-3.805,2.2-8.401,3.751-13.503,4.683c-1.614,2.945-4.307,5.603-8.119,7.802c-16.809,9.706-49.052,6.828-72.02-6.431
			C37.087,98.167,32.104,79.549,48.914,69.845c3.808-2.199,8.411-3.755,13.512-4.686c1.614-2.946,4.302-5.6,8.109-7.799
			C87.347,47.654,119.586,50.536,142.545,63.792z"/>
		<path fill="#FACBCB" stroke="#DCA1B2" d="M146.909,52.318c25.835,14.917,31.446,35.856,12.533,46.775
			c-4.282,2.474-9.456,4.221-15.191,5.269c-1.818,3.313-4.848,6.302-9.13,8.775c-18.916,10.919-55.19,7.683-81.027-7.233
			c-25.829-14.913-31.434-35.857-12.52-46.776c4.282-2.474,9.458-4.223,15.198-5.271c1.818-3.313,4.841-6.299,9.124-8.773
			C84.809,34.166,121.078,37.406,146.909,52.318z"/>
		<path fill="#FACBCB" stroke="#DCA1B2" d="M152.163,38.146c28.708,16.575,34.943,39.84,13.93,51.973
			c-4.763,2.75-10.508,4.688-16.885,5.854c-2.016,3.682-5.381,7.002-10.144,9.751c-21.013,12.133-61.32,8.538-90.029-8.038
			C20.335,81.115,14.106,57.845,35.12,45.711c4.763-2.749,10.515-4.69,16.891-5.856c2.019-3.682,5.378-6.999,10.138-9.747
			C83.165,17.976,123.463,21.575,152.163,38.146z"/>
		<path fill="#FACBCB" stroke="#DCA1B2" d="M146.909,27.403c25.835,14.916,31.446,35.857,12.537,46.775
			c-4.286,2.474-9.457,4.22-15.195,5.268c-1.818,3.313-4.848,6.302-9.13,8.776c-18.913,10.919-55.187,7.683-81.024-7.233
			C28.266,66.076,22.661,45.133,41.574,34.213c4.285-2.475,9.462-4.223,15.198-5.271c1.818-3.313,4.841-6.299,9.126-8.773
			C84.809,9.25,121.078,12.49,146.909,27.403z"/>
		<path fill="#FACBCB" stroke="#DCA1B2" d="M142.545,26.017c22.969,13.259,27.956,31.872,11.143,41.579
			c-3.805,2.199-8.401,3.75-13.503,4.683c-1.614,2.945-4.307,5.602-8.119,7.801c-16.809,9.707-49.052,6.829-72.02-6.43
			C37.087,60.394,32.104,41.776,48.914,32.07c3.808-2.198,8.411-3.754,13.512-4.686c1.614-2.946,4.302-5.6,8.109-7.798
			C87.347,9.879,119.586,12.761,142.545,26.017z"/>
		<path fill="#FACBCB" stroke="#DCA1B2" d="M136.597,25.792c20.097,11.602,24.46,27.889,9.752,36.381
			c-3.335,1.924-7.356,3.282-11.817,4.097c-1.413,2.578-3.771,4.901-7.102,6.826c-14.712,8.493-42.924,5.976-63.019-5.626
			c-20.094-11.599-24.452-27.889-9.743-36.381c3.335-1.925,7.359-3.284,11.824-4.101c1.412-2.577,3.764-4.899,7.095-6.822
			C88.297,11.674,116.506,14.193,136.597,25.792z"/>
		<path fill="none" stroke="#DCA1B2" d="M66.491,26.988c20.245,0,56.814,19.643,68.039,39.282c1.02,1.791,3.563-0.797,5.654,6.007
			c0.603,1.969,6.43,1.129,4.066,7.169c-1.103,2.817,7.588,1.194,4.957,16.525"/>
	</g>
</g>
<path id="floor" fill="#F9F9F9" d="M0,483.5h548.094v-81.71l-21.396,12.354c-9.229,5.328-24.184,5.328-33.412,0L248.566,272.852
	l-66.737,38.562c-9.219,5.234-24.273,5.328-33.5,0l-24.656-14.25c-10.078-5.625-9.672-14.938-0.172-20.312l66.09-38.048
	l-6.523-3.768c-9.216-5.319-10.161-13.938-0.939-19.975l28.591-16.495c-60.03,18.91-126.53,9.035-165.78-13.715
	c-26.416-15.583-40.284-35.149-41.041-55.167l0,0"/>
</svg>
