<?xml version="1.0" encoding="utf-8"?>
<!-- Generator: Adobe Illustrator 16.0.0, SVG Export Plug-In . SVG Version: 6.00 Build 0)  -->
<!DOCTYPE svg PUBLIC "-//W3C//DTD SVG 1.1//EN" "http://www.w3.org/Graphics/SVG/1.1/DTD/svg11.dtd">
<svg version="1.1" id="Layer_1" xmlns="http://www.w3.org/2000/svg" xmlns:xlink="http://www.w3.org/1999/xlink" x="0px" y="0px"
	 width="1124px" height="560px" viewBox="0 0 1124 560" enable-background="new 0 0 1124 560" xml:space="preserve">
<g id="hole">
	<g>
		<linearGradient id="SVGID_1_" gradientUnits="userSpaceOnUse" x1="434.666" y1="145.1523" x2="338.7643" y2="408.6402">
			<stop  offset="0" style="stop-color:#494D59"/>
			<stop  offset="0.256" style="stop-color:#434955"/>
			<stop  offset="0.6069" style="stop-color:#313F4B"/>
			<stop  offset="0.7927" style="stop-color:#1D3340"/>
			<stop  offset="1" style="stop-color:#012330"/>
		</linearGradient>
		<path fill="url(#SVGID_1_)" d="M494.627,167.378l24.606,14.209c9.229,5.329,9.229,13.959,0,19.289l-64.094,37.003l154.241,89.053
			c0.137,0.077,0.291,0.168,0.418,0.254l90.051,51.99c9.229,5.331,9.229,13.963,0,19.291l-21.396,12.354
			c-9.215,5.315-24.182,5.33-33.406-0.001l-73.777-42.598l-36.544,21.1l73.775,42.597c9.23,5.33,9.23,13.962,0.006,19.292
			l-21.396,12.352c-9.229,5.33-24.181,5.33-33.412,0L308.977,322.271l-66.892,38.612c-9.215,5.322-24.181,5.331-33.408,0.007
			l-24.612-14.209c-9.218-5.32-9.214-13.975,0-19.291l66.892-38.617l-7.477-4.316c-9.216-5.321-9.229-13.961,0-19.29l32.17-18.574
			c-53.567,18.47-123.979,14.389-170.11-12.247c-54.486-31.458-54.47-82.454,0.003-113.904
			c54.487-31.457,142.814-31.465,197.3-0.009c46.131,26.635,53.201,67.287,21.212,98.214l32.186-18.583
			c9.229-5.328,24.194-5.32,33.409,0l7.479,4.316l64.091-37.003C470.448,162.049,485.411,162.058,494.627,167.378z"/>
	</g>
	<line fill="none" stroke="#231F20" x1="324.784" y1="332.294" x2="324.784" y2="218.648"/>
	<line fill="none" stroke="#231F20" x1="454.988" y1="407.108" x2="454.988" y2="237.669"/>
	<line fill="none" stroke="#231F20" x1="397.118" y1="373.084" x2="397.118" y2="203.645"/>
	<line fill="none" stroke="#231F20" x1="534.287" y1="452.354" x2="534.287" y2="389.309"/>
	<line fill="none" stroke="#231F20" x1="274.953" y1="342.341" x2="274.953" y2="247.574"/>
	<line fill="none" stroke="#231F20" x1="250.84" y1="355.834" x2="250.84" y2="288.363"/>
	<g>
		<line fill="none" stroke="#231F20" x1="250.381" y1="321.32" x2="275.65" y2="306.73"/>
	</g>
	<g>
		<line fill="none" stroke="#231F20" x1="223.384" y1="364.831" x2="250.957" y2="348.912"/>
	</g>
	<g>
		<line fill="none" stroke="#231F20" x1="534.726" y1="449.462" x2="565.561" y2="467.265"/>
	</g>
	<g>
		<path fill="none" stroke="#231F20" d="M455.145,298.018l154.24,89.053c0.139,0.08,0.291,0.173,0.418,0.259l47.102,27.19"/>
	</g>
	<g>
		<path fill="none" stroke="#231F20" d="M324.054,278.787l32.186-18.583c9.229-5.328,24.194-5.32,33.409,0l7.477,4.317
			l64.096-37.003c5.271-3.046,12.419-4.348,19.297-3.911"/>
	</g>
	<g>
		<path fill="none" stroke="#231F20" d="M74.729,207.467c6.811-9.786,17.082-18.958,30.814-26.886
			c54.487-31.457,142.814-31.466,197.3-0.009c14.377,8.3,24.022,16.581,30.811,26.885"/>
	</g>
	<path fill="none" stroke="#231F20" d="M479.918,223.577"/>
	<path fill="none" stroke="#231F20" d="M479.918,223.577"/>
	<path fill="none" stroke="#231F20" d="M479.918,223.577"/>
	<path fill="none" stroke="#231F20" d="M333.653,207.457"/>
</g>
<path id="outline1" fill="none" stroke="#231F20" d="M494.627,167.378l24.606,14.209c9.229,5.329,9.229,13.959,0,19.289
	l-64.094,37.003l154.241,89.053c0.137,0.077,0.291,0.168,0.418,0.254l90.051,51.99c9.229,5.331,9.229,13.963,0,19.291
	l-21.396,12.354c-9.215,5.315-24.182,5.33-33.406-0.001l-73.777-42.598l-36.544,21.1l73.775,42.597
	c9.23,5.33,9.23,13.962,0.006,19.292l-21.396,12.352c-9.229,5.33-24.181,5.33-33.412,0L308.977,322.271l-66.892,38.612
	c-9.215,5.322-24.181,5.331-33.408,0.007l-24.612-14.209c-9.218-5.32-9.214-13.975,0-19.291l66.892-38.617l-7.477-4.316
	c-9.216-5.321-9.229-13.961,0-19.29l32.17-18.574c-53.567,18.47-123.979,14.389-170.11-12.247
	c-54.486-31.458-54.47-82.454,0.003-113.904c54.487-31.457,142.814-31.465,197.3-0.009c46.131,26.635,53.201,67.287,21.212,98.214
	l32.186-18.583c9.229-5.328,24.194-5.32,33.409,0l7.479,4.316l64.091-37.003C470.448,162.049,485.411,162.058,494.627,167.378z"/>
<path id="outline2" fill="none" stroke="#231F20" d="M494.627,167.378l24.606,14.209c9.229,5.329,9.229,13.959,0,19.289
	l-64.094,37.003l154.241,89.053c0.137,0.077,0.291,0.168,0.418,0.254l90.051,51.99c9.229,5.331,9.229,13.963,0,19.291
	l-21.396,12.354c-9.215,5.315-24.182,5.33-33.406-0.001l-73.777-42.598l-36.544,21.1l73.775,42.597
	c9.23,5.33,9.23,13.962,0.006,19.292l-21.396,12.352c-9.229,5.33-24.181,5.33-33.412,0L308.977,322.271l-66.892,38.612
	c-9.215,5.322-24.181,5.331-33.408,0.007l-24.612-14.209c-9.218-5.32-9.214-13.975,0-19.291l66.892-38.617l-7.477-4.316
	c-9.216-5.321-9.229-13.961,0-19.29l32.17-18.574c-53.567,18.47-123.979,14.389-170.11-12.247
	c-54.486-31.458-54.47-82.454,0.003-113.904c54.487-31.457,142.814-31.465,197.3-0.009c46.131,26.635,53.201,67.287,21.212,98.214
	l32.186-18.583c9.229-5.328,24.194-5.32,33.409,0l7.479,4.316l64.091-37.003C470.448,162.049,485.411,162.058,494.627,167.378z"/>
<g id="inners">
	<g id="heart">
		<path fill="#FACBCB" stroke="#FACBCB" d="M405.837,149.621v0.387c-0.193,19.964-21.331,43.53-33.854,61.212
			c-0.016,0-0.016,0-0.033,0l-0.145-0.049c-6.252-1.575-14.562-2.186-21.378-4.822c-6.864-2.652-12.201-7.378-12.298-17.248
			c-0.18-18.518,11.361-34.913,21.427-34.593c3.358-1.382,6.767-1.012,9.663,1.721c1.604,0.61,3.712,2.186,5.014,4.179
			c8.584-28.581,26.973-35.011,30.862-18.084c0.033,0.113,0.062,0.242,0.083,0.371c0.08,0.305,0.144,0.626,0.188,0.948
			c0.033,0.096,0.054,0.209,0.054,0.305c0.048,0.258,0.076,0.515,0.107,0.771c0.032,0.048,0.032,0.097,0.021,0.146
			c0.079,0.562,0.145,1.141,0.177,1.752c0.031,0.306,0.047,0.627,0.062,0.948C405.837,148.224,405.837,148.915,405.837,149.621z"/>
		<g>
			<path fill="none" stroke="#DCA1B2" d="M358.833,208.865"/>
			<path fill="none" stroke="#DCA1B2" d="M373.972,160.583c9.701-32.248,31.868-36.305,31.606-10.399
				c-0.194,19.963-21.322,43.532-33.853,61.213l0,0c-12.53-3.214-33.656-2.389-33.854-22.124
				c-0.156-16.072,8.512-30.539,17.39-33.885"/>
			<path fill="none" stroke="#DCA1B2" d="M377.53,201.295h-0.977c-10.023-2.572-26.925-1.911-27.083-17.699
				c-0.195-19.371,15.646-35.828,23.933-23.335"/>
			<path fill="none" stroke="#DCA1B2" d="M377.3,164.519c7.061-29.305,26.549-33.914,26.335-12.193
				c-0.146,14.491-14.073,31.359-24.146,44.928"/>
			<path fill="none" stroke="#DCA1B2" d="M380.34,195.338l-1.399-0.305c-7.8-2.001-20.949-1.487-21.073-13.77
				c-0.173-17.339,16.167-31.679,21.07-12.165l0,0c4.905-25.176,21.245-29.705,21.072-12.165
				c-0.108,10.842-9.599,24.332-17.328,34.668"/>
			<path fill="none" stroke="#DCA1B2" d="M374.631,205.763L374.631,205.763c-11.456-2.938-30.774-2.185-30.955-20.229
				c-0.206-20.623,15.485-38.357,25.298-29.149"/>
			<path fill="none" stroke="#DCA1B2" d="M375.854,162.253c8.357-32.167,29.971-36.913,29.729-12.459
				c-0.17,17.206-17.348,37.343-28.908,53.139"/>
			<path fill="none" stroke="#DCA1B2" d="M389.758,135.547c8.417-6.136,16.479-1.689,16.33,13.74
				c-0.189,19.319-20.643,42.13-32.765,59.243l0,0c-12.126-3.111-32.571-2.312-32.766-21.411
				c-0.144-14.137,6.778-26.993,14.49-31.648c3.308-1.997,6.759-2.486,9.861-0.923"/>
			<path fill="none" stroke="#DCA1B2" stroke-miterlimit="10" d="M379.06,168.853c2.884,3.465,4.927,8.03,4.927,12.473
				c0,2.815-0.731,6.053-1.847,9.339c-3.43,10.141-10.438,20.732-10.438,20.732"/>
		</g>
	</g>
	<g id="brain">
		<path fill="#FACBCB" stroke="#DCA1B2" d="M202.877,113.814c22.969,13.26,27.956,31.872,11.143,41.578
			c-3.805,2.2-8.401,3.751-13.503,4.683c-1.614,2.945-4.307,5.603-8.119,7.802c-16.809,9.706-49.052,6.828-72.02-6.431
			c-22.959-13.257-27.942-31.874-11.133-41.579c3.808-2.199,8.411-3.755,13.512-4.686c1.614-2.946,4.302-5.6,8.109-7.799
			C147.678,97.677,179.918,100.558,202.877,113.814z"/>
		<path fill="#FACBCB" stroke="#DCA1B2" d="M207.241,102.341c25.835,14.917,31.446,35.856,12.533,46.775
			c-4.282,2.474-9.456,4.221-15.191,5.269c-1.818,3.313-4.848,6.302-9.13,8.775c-18.916,10.919-55.19,7.683-81.027-7.233
			c-25.829-14.913-31.434-35.857-12.52-46.776c4.282-2.474,9.458-4.223,15.198-5.271c1.818-3.313,4.841-6.299,9.124-8.773
			C145.14,84.188,181.409,87.428,207.241,102.341z"/>
		<path fill="#FACBCB" stroke="#DCA1B2" d="M212.494,88.168c28.708,16.575,34.943,39.84,13.93,51.973
			c-4.763,2.75-10.508,4.688-16.885,5.854c-2.016,3.682-5.381,7.002-10.144,9.751c-21.013,12.133-61.32,8.538-90.029-8.038
			c-28.699-16.571-34.928-39.841-13.915-51.974c4.763-2.749,10.515-4.69,16.891-5.856c2.019-3.682,5.378-6.999,10.138-9.747
			C143.496,67.998,183.795,71.597,212.494,88.168z"/>
		<path fill="#FACBCB" stroke="#DCA1B2" d="M207.241,77.426c25.835,14.916,31.446,35.857,12.537,46.775
			c-4.286,2.474-9.457,4.22-15.195,5.268c-1.818,3.313-4.848,6.302-9.13,8.776c-18.913,10.919-55.187,7.683-81.024-7.233
			c-25.832-14.914-31.437-35.857-12.523-46.776c4.285-2.475,9.462-4.223,15.198-5.271c1.818-3.313,4.841-6.299,9.126-8.773
			C145.14,59.273,181.409,62.512,207.241,77.426z"/>
		<path fill="#FACBCB" stroke="#DCA1B2" d="M202.877,76.039c22.969,13.259,27.956,31.872,11.143,41.579
			c-3.805,2.199-8.401,3.75-13.503,4.683c-1.614,2.945-4.307,5.602-8.119,7.801c-16.809,9.707-49.052,6.829-72.02-6.43
			c-22.959-13.256-27.942-31.873-11.133-41.579c3.808-2.198,8.411-3.754,13.512-4.686c1.614-2.946,4.302-5.6,8.109-7.798
			C147.678,59.902,179.918,62.783,202.877,76.039z"/>
		<path fill="#FACBCB" stroke="#DCA1B2" d="M196.928,75.815c20.097,11.602,24.46,27.889,9.752,36.381
			c-3.335,1.924-7.356,3.282-11.817,4.097c-1.413,2.578-3.771,4.901-7.102,6.826c-14.712,8.493-42.924,5.976-63.019-5.626
			c-20.094-11.599-24.452-27.889-9.743-36.381c3.335-1.925,7.359-3.284,11.824-4.101c1.412-2.577,3.764-4.899,7.095-6.822
			C148.629,61.697,176.838,64.216,196.928,75.815z"/>
		<path fill="none" stroke="#DCA1B2" d="M126.823,77.011c20.245,0,56.814,19.643,68.039,39.282c1.02,1.791,3.563-0.797,5.654,6.007
			c0.603,1.969,6.43,1.129,4.066,7.169c-1.103,2.817,7.588,1.194,4.957,16.525"/>
	</g>
</g>
<path id="floor" fill="#FFFFFF" d="M0.001,559h599.021l9.404-107.188l-21.396,12.354c-9.229,5.328-24.183,5.328-33.412,0
	l-244.72-141.292l-66.737,38.562c-9.219,5.234-24.273,5.328-33.5,0l-24.656-14.25c-10.078-5.625-9.672-14.938-0.172-20.312
	l66.09-38.048l-6.523-3.768c-9.216-5.319-10.161-13.938-0.939-19.975l28.591-16.495c-60.03,18.91-126.53,9.035-165.78-13.715
	c-26.416-15.583-40.284-35.149-41.041-55.167L0,179.23"/>
</svg>
